<svg width="16" height="16" viewBox="0 0 16 16" fill="none" xmlns="http://www.w3.org/2000/svg">
<path d="M7.99996 8.84859L11.2221 12.0708C11.4174 12.266 11.734 12.266 11.9292 12.0708L12.0706 11.9293C12.2659 11.7341 12.2659 11.4175 12.0706 11.2222L8.84848 8.00006L12.0707 4.77789C12.2659 4.58263 12.2659 4.26604 12.0707 4.07078L11.9292 3.92936C11.734 3.7341 11.4174 3.7341 11.2221 3.92936L7.99996 7.15154L4.77777 3.92934C4.5825 3.73408 4.26592 3.73408 4.07066 3.92934L3.92924 4.07077C3.73397 4.26603 3.73397 4.58261 3.92924 4.77787L7.15143 8.00006L3.92925 11.2222C3.73398 11.4175 3.73398 11.7341 3.92925 11.9294L4.07067 12.0708C4.26593 12.266 4.58251 12.266 4.77777 12.0708L7.99996 8.84859Z" fill="#AEB7CD"/>
</svg>
