<svg width="32" height="32" viewBox="0 0 32 32" fill="none" xmlns="http://www.w3.org/2000/svg">
<path d="M25.7067 23.522C26.0978 23.8732 26.0978 24.4585 25.7067 24.8488L24.8465 25.7073C24.4555 26.0976 23.869 26.0976 23.5171 25.7073L18.6686 20.8683C17.3392 21.7268 15.7752 22.2341 14.1329 22.2341C9.63636 22.2341 6 18.6049 6 14.1171C6 9.66829 9.63636 6 14.1329 6C18.5904 6 22.2659 9.66829 22.2659 14.1171C22.2659 15.7951 21.7185 17.3561 20.8583 18.6829L25.7067 23.522ZM9.12805 14.1171C9.12805 16.8878 11.3568 19.1122 14.1329 19.1122C16.87 19.1122 19.1378 16.8878 19.1378 14.1171C19.1378 11.3854 16.87 9.12195 14.1329 9.12195C11.3568 9.12195 9.12805 11.3854 9.12805 14.1171Z" fill="#AEB7CD"/>
</svg>
