<svg width="20" height="15" viewBox="0 0 20 15" fill="none" xmlns="http://www.w3.org/2000/svg">
<mask id="mask0_1300_27340" style="mask-type:luminance" maskUnits="userSpaceOnUse" x="0" y="0" width="20" height="15">
<rect width="20" height="15" fill="white"/>
</mask>
<g mask="url(#mask0_1300_27340)">
<path fill-rule="evenodd" clip-rule="evenodd" d="M5 0H20V15H5V0Z" fill="#EF0000"/>
<path fill-rule="evenodd" clip-rule="evenodd" d="M0 0H7.5V15H0V0Z" fill="#2F8D00"/>
<mask id="mask1_1300_27340" style="mask-type:luminance" maskUnits="userSpaceOnUse" x="2" y="2" width="11" height="11">
<path fill-rule="evenodd" clip-rule="evenodd" d="M7.44048 12.3795C4.77768 12.3795 2.61905 10.1949 2.61905 7.5C2.61905 4.80512 4.77768 2.62048 7.44048 2.62048C10.1033 2.62048 12.2619 4.80512 12.2619 7.5C12.2619 10.1949 10.1033 12.3795 7.44048 12.3795Z" fill="white"/>
</mask>
<g mask="url(#mask1_1300_27340)">
<path fill-rule="evenodd" clip-rule="evenodd" d="M7.14286 2.5H7.76786V4.18675H7.14286V2.5Z" fill="#FFE017"/>
<path fill-rule="evenodd" clip-rule="evenodd" d="M7.14286 10.9337H7.76786V12.5H7.14286V10.9337Z" fill="#FFE017"/>
<path d="M2.69654 7.75239L2.5218 7.30409C4.45004 6.53429 5.90539 6.03784 6.89288 5.81411C8.34171 5.48585 9.93363 5.24299 11.6688 5.08533L11.7113 5.56532C9.99612 5.72117 8.42461 5.96093 6.99691 6.2844C6.03882 6.50147 4.60368 6.99102 2.69654 7.75239Z" fill="#FFE017"/>
<path d="M11.963 4.78993L11.8212 5.25C10.3639 4.78993 9.17677 4.59216 8.26425 4.65342L8.23273 4.17255C9.21248 4.10678 10.4544 4.31367 11.963 4.78993Z" fill="#FFE017"/>
<path d="M12.4673 7.36233L12.1979 7.75973C11.455 7.24394 10.5397 6.98486 9.44583 6.98486V6.50293C10.6317 6.50293 11.6409 6.78861 12.4673 7.36233Z" fill="#FFE017"/>
<path d="M12.0638 7.50659L12.1869 7.97213C10.5852 8.40597 9.08151 8.65211 7.6756 8.71007C6.26 8.76843 4.61009 8.52141 2.72445 7.97089L2.85644 7.50784C4.69625 8.04499 6.29665 8.28459 7.65622 8.22854C9.02548 8.17209 10.4947 7.9316 12.0638 7.50659Z" fill="#FFE017"/>
<path d="M11.8823 9.77246L11.1296 10.5441C9.69919 9.11503 8.43986 8.09317 7.35938 7.47919C6.26043 6.85472 4.82732 6.22061 3.06224 5.57942L3.42421 4.55884C5.24134 5.21893 6.72717 5.87637 7.88393 6.5337C9.05916 7.20152 10.3894 8.2809 11.8823 9.77246Z" fill="#FFE017"/>
<path d="M3.41144 10.2096L3.12653 9.82341C3.16631 9.79334 3.2373 9.7432 3.33512 9.67966C3.49662 9.57474 3.67595 9.46999 3.86891 9.37211C4.40035 9.10252 4.93343 8.9342 5.44188 8.91874C5.46675 8.91798 5.49151 8.9176 5.51616 8.9176V9.39953C5.4963 9.39953 5.47631 9.39984 5.45618 9.40045C5.0277 9.41348 4.55716 9.56205 4.08229 9.80294C3.90529 9.89273 3.74037 9.98906 3.59236 10.0852C3.54084 10.1187 3.49526 10.1496 3.4562 10.1772C3.43342 10.1933 3.41831 10.2044 3.41144 10.2096Z" fill="#FFE017"/>
<path d="M3.6326 10.3767L3.75252 9.91026C5.34009 10.3283 6.56402 10.5367 7.4182 10.5367C8.26919 10.5367 9.53581 10.2909 11.2098 9.79773L11.3429 10.2604C9.62932 10.7653 8.32382 11.0186 7.4182 11.0186C6.51578 11.0186 5.25594 10.8042 3.6326 10.3767Z" fill="#FFE017"/>
<path d="M3.01403 6.05902L3.76845 5.28906L4.87303 6.39759L4.11861 7.16755L3.01403 6.05902Z" fill="#FFE017"/>
<path d="M9.27246 9.9048L9.83361 8.98108L11.5859 10.0714L11.0247 10.9951L9.27246 9.9048Z" fill="#FFE017"/>
</g>
<path fill-rule="evenodd" clip-rule="evenodd" d="M2.61905 7.5C2.61905 10.1949 4.77768 12.3795 7.44048 12.3795C10.1033 12.3795 12.2619 10.1949 12.2619 7.5C12.2619 4.80512 10.1033 2.62048 7.44048 2.62048C4.77768 2.62048 2.61905 4.80512 2.61905 7.5ZM11.6667 7.56024C11.6667 9.88915 9.80119 11.7771 7.5 11.7771C5.19881 11.7771 3.33333 9.88915 3.33333 7.56024C3.33333 5.23133 5.19881 3.34337 7.5 3.34337C9.80119 3.34337 11.6667 5.23133 11.6667 7.56024Z" fill="#F9E813"/>
<path d="M4.78543 4.49084V8.40379C5.04301 9.95259 5.9108 10.727 7.3888 10.727C8.86679 10.727 9.73458 9.95259 9.99217 8.40379V4.49084H4.78543Z" fill="white"/>
<path d="M4.42829 4.12939H10.3493V8.43399L10.3444 8.46378C10.0583 10.1836 9.04436 11.0884 7.3888 11.0884C5.73325 11.0884 4.71927 10.1836 4.43325 8.46378L4.42829 8.43399V4.12939Z" fill="#C51918"/>
<path d="M5.78264 5.44421H8.99497V8.21977C8.99497 8.21977 8.75659 9.65309 7.3888 9.65309C6.02102 9.65309 5.78264 8.21977 5.78264 8.21977V5.44421Z" fill="#F7FCFF"/>
<path fill-rule="evenodd" clip-rule="evenodd" d="M5 4.42773H5.45181V4.72894H5V4.42773Z" fill="#F9E813"/>
<path fill-rule="evenodd" clip-rule="evenodd" d="M4.7619 4.54822H5.59524V4.69882H4.7619V4.54822Z" fill="#060101"/>
<path fill-rule="evenodd" clip-rule="evenodd" d="M4.7619 4.6687H5.21371V4.8193H4.7619V4.6687Z" fill="#F9E813"/>
<path fill-rule="evenodd" clip-rule="evenodd" d="M5.23809 4.6687H5.6899V4.8193H5.23809V4.6687Z" fill="#F9E813"/>
<path fill-rule="evenodd" clip-rule="evenodd" d="M4.7619 5.03015H5.06311V5.48196H4.7619V5.03015Z" fill="#F9E813"/>
<path fill-rule="evenodd" clip-rule="evenodd" d="M5.35714 5.03015H5.65834V5.48196H5.35714V5.03015Z" fill="#F9E813"/>
<path fill-rule="evenodd" clip-rule="evenodd" d="M5.11904 5.03015H5.26964V5.48196H5.11904V5.03015Z" fill="#F9E813"/>
<path fill-rule="evenodd" clip-rule="evenodd" d="M4.7619 4.90967H5.59524V5.06027H4.7619V4.90967Z" fill="#060101"/>
<path fill-rule="evenodd" clip-rule="evenodd" d="M4.7619 5.27112H5.59524V5.42172H4.7619V5.27112Z" fill="#060101"/>
<path fill-rule="evenodd" clip-rule="evenodd" d="M4.88095 4.78918H5.03155V4.93979H4.88095V4.78918Z" fill="#F9E813"/>
<path fill-rule="evenodd" clip-rule="evenodd" d="M5.35714 4.78918H5.50774V4.93979H5.35714V4.78918Z" fill="#F9E813"/>
<path fill-rule="evenodd" clip-rule="evenodd" d="M5.11904 4.6687H5.26964V4.96991H5.11904V4.6687Z" fill="#F9E813"/>
<path fill-rule="evenodd" clip-rule="evenodd" d="M7.2619 4.42773H7.71371V4.72894H7.2619V4.42773Z" fill="#F9E813"/>
<path fill-rule="evenodd" clip-rule="evenodd" d="M7.0238 4.54822H7.85714V4.69882H7.0238V4.54822Z" fill="#060101"/>
<path fill-rule="evenodd" clip-rule="evenodd" d="M7.0238 4.6687H7.47561V4.8193H7.0238V4.6687Z" fill="#F9E813"/>
<path fill-rule="evenodd" clip-rule="evenodd" d="M7.49999 4.6687H7.9518V4.8193H7.49999V4.6687Z" fill="#F9E813"/>
<path fill-rule="evenodd" clip-rule="evenodd" d="M7.0238 5.03015H7.32501V5.48196H7.0238V5.03015Z" fill="#F9E813"/>
<path fill-rule="evenodd" clip-rule="evenodd" d="M7.61904 5.03015H7.92025V5.48196H7.61904V5.03015Z" fill="#F9E813"/>
<path fill-rule="evenodd" clip-rule="evenodd" d="M7.38094 5.03015H7.53155V5.48196H7.38094V5.03015Z" fill="#F9E813"/>
<path fill-rule="evenodd" clip-rule="evenodd" d="M7.0238 4.90967H7.85714V5.06027H7.0238V4.90967Z" fill="#060101"/>
<path fill-rule="evenodd" clip-rule="evenodd" d="M7.0238 5.27112H7.85714V5.42172H7.0238V5.27112Z" fill="#060101"/>
<path fill-rule="evenodd" clip-rule="evenodd" d="M7.14285 4.78918H7.29346V4.93979H7.14285V4.78918Z" fill="#F9E813"/>
<path fill-rule="evenodd" clip-rule="evenodd" d="M7.61904 4.78918H7.76964V4.93979H7.61904V4.78918Z" fill="#F9E813"/>
<path fill-rule="evenodd" clip-rule="evenodd" d="M7.38094 4.6687H7.53155V4.96991H7.38094V4.6687Z" fill="#F9E813"/>
<path fill-rule="evenodd" clip-rule="evenodd" d="M9.40476 4.42773H9.85657V4.72894H9.40476V4.42773Z" fill="#F9E813"/>
<path fill-rule="evenodd" clip-rule="evenodd" d="M9.16666 4.54822H10V4.69882H9.16666V4.54822Z" fill="#060101"/>
<path fill-rule="evenodd" clip-rule="evenodd" d="M9.16666 4.6687H9.61847V4.8193H9.16666V4.6687Z" fill="#F9E813"/>
<path fill-rule="evenodd" clip-rule="evenodd" d="M9.64285 4.6687H10.0947V4.8193H9.64285V4.6687Z" fill="#F9E813"/>
<path fill-rule="evenodd" clip-rule="evenodd" d="M9.16666 5.03015H9.46787V5.48196H9.16666V5.03015Z" fill="#F9E813"/>
<path fill-rule="evenodd" clip-rule="evenodd" d="M9.7619 5.03015H10.0631V5.48196H9.7619V5.03015Z" fill="#F9E813"/>
<path fill-rule="evenodd" clip-rule="evenodd" d="M9.5238 5.03015H9.67441V5.48196H9.5238V5.03015Z" fill="#F9E813"/>
<path fill-rule="evenodd" clip-rule="evenodd" d="M9.16666 4.90967H10V5.06027H9.16666V4.90967Z" fill="#060101"/>
<path fill-rule="evenodd" clip-rule="evenodd" d="M9.16666 5.27112H10V5.42172H9.16666V5.27112Z" fill="#060101"/>
<path fill-rule="evenodd" clip-rule="evenodd" d="M9.28571 4.78918H9.43632V4.93979H9.28571V4.78918Z" fill="#F9E813"/>
<path fill-rule="evenodd" clip-rule="evenodd" d="M9.7619 4.78918H9.9125V4.93979H9.7619V4.78918Z" fill="#F9E813"/>
<path fill-rule="evenodd" clip-rule="evenodd" d="M9.5238 4.6687H9.67441V4.96991H9.5238V4.6687Z" fill="#F9E813"/>
<path fill-rule="evenodd" clip-rule="evenodd" d="M9.40476 6.59644H9.85657V6.89764H9.40476V6.59644Z" fill="#F9E813"/>
<path fill-rule="evenodd" clip-rule="evenodd" d="M9.16666 6.71692H10V6.86752H9.16666V6.71692Z" fill="#060101"/>
<path fill-rule="evenodd" clip-rule="evenodd" d="M9.16666 6.8374H9.61847V6.988H9.16666V6.8374Z" fill="#F9E813"/>
<path fill-rule="evenodd" clip-rule="evenodd" d="M9.64285 6.8374H10.0947V6.988H9.64285V6.8374Z" fill="#F9E813"/>
<path fill-rule="evenodd" clip-rule="evenodd" d="M9.16666 7.19885H9.46787V7.65066H9.16666V7.19885Z" fill="#F9E813"/>
<path fill-rule="evenodd" clip-rule="evenodd" d="M9.7619 7.19885H10.0631V7.65066H9.7619V7.19885Z" fill="#F9E813"/>
<path fill-rule="evenodd" clip-rule="evenodd" d="M9.5238 7.19885H9.67441V7.65066H9.5238V7.19885Z" fill="#F9E813"/>
<path fill-rule="evenodd" clip-rule="evenodd" d="M9.16666 7.07837H10V7.22897H9.16666V7.07837Z" fill="#060101"/>
<path fill-rule="evenodd" clip-rule="evenodd" d="M9.16666 7.43982H10V7.59042H9.16666V7.43982Z" fill="#060101"/>
<path fill-rule="evenodd" clip-rule="evenodd" d="M9.28571 6.95789H9.43632V7.10849H9.28571V6.95789Z" fill="#F9E813"/>
<path fill-rule="evenodd" clip-rule="evenodd" d="M9.7619 6.95789H9.9125V7.10849H9.7619V6.95789Z" fill="#F9E813"/>
<path fill-rule="evenodd" clip-rule="evenodd" d="M9.5238 6.8374H9.67441V7.13861H9.5238V6.8374Z" fill="#F9E813"/>
<path fill-rule="evenodd" clip-rule="evenodd" d="M5 6.59644H5.45181V6.89764H5V6.59644Z" fill="#F9E813"/>
<path fill-rule="evenodd" clip-rule="evenodd" d="M4.7619 6.71692H5.59524V6.86752H4.7619V6.71692Z" fill="#060101"/>
<path fill-rule="evenodd" clip-rule="evenodd" d="M4.7619 6.8374H5.21371V6.988H4.7619V6.8374Z" fill="#F9E813"/>
<path fill-rule="evenodd" clip-rule="evenodd" d="M5.23809 6.8374H5.6899V6.988H5.23809V6.8374Z" fill="#F9E813"/>
<path fill-rule="evenodd" clip-rule="evenodd" d="M4.7619 7.19885H5.06311V7.65066H4.7619V7.19885Z" fill="#F9E813"/>
<path fill-rule="evenodd" clip-rule="evenodd" d="M5.35714 7.19885H5.65834V7.65066H5.35714V7.19885Z" fill="#F9E813"/>
<path fill-rule="evenodd" clip-rule="evenodd" d="M5.11904 7.19885H5.26964V7.65066H5.11904V7.19885Z" fill="#F9E813"/>
<path fill-rule="evenodd" clip-rule="evenodd" d="M4.7619 7.07837H5.59524V7.22897H4.7619V7.07837Z" fill="#060101"/>
<path fill-rule="evenodd" clip-rule="evenodd" d="M4.7619 7.43982H5.59524V7.59042H4.7619V7.43982Z" fill="#060101"/>
<path fill-rule="evenodd" clip-rule="evenodd" d="M4.88095 6.95789H5.03155V7.10849H4.88095V6.95789Z" fill="#F9E813"/>
<path fill-rule="evenodd" clip-rule="evenodd" d="M5.35714 6.95789H5.50774V7.10849H5.35714V6.95789Z" fill="#F9E813"/>
<path fill-rule="evenodd" clip-rule="evenodd" d="M5.11904 6.8374H5.26964V7.13861H5.11904V6.8374Z" fill="#F9E813"/>
<path fill-rule="evenodd" clip-rule="evenodd" d="M5.28985 9.31506L5.58026 8.96896L5.811 9.16257L5.52058 9.50867L5.28985 9.31506Z" fill="#F9E813"/>
<path fill-rule="evenodd" clip-rule="evenodd" d="M5.2291 9.57483L5.76475 8.93646L5.88012 9.03326L5.34446 9.67163L5.2291 9.57483Z" fill="#060101"/>
<path fill-rule="evenodd" clip-rule="evenodd" d="M5.32139 9.65234L5.6118 9.30624L5.72717 9.40304L5.43676 9.74915L5.32139 9.65234Z" fill="#F9E813"/>
<path fill-rule="evenodd" clip-rule="evenodd" d="M5.62748 9.2876L5.9179 8.94149L6.03326 9.0383L5.74285 9.3844L5.62748 9.2876Z" fill="#F9E813"/>
<path fill-rule="evenodd" clip-rule="evenodd" d="M5.59827 9.88464L5.79188 9.65391L6.13799 9.94432L5.94438 10.1751L5.59827 9.88464Z" fill="#F9E813"/>
<path fill-rule="evenodd" clip-rule="evenodd" d="M5.98089 9.42871L6.1745 9.19797L6.5206 9.48839L6.32699 9.71913L5.98089 9.42871Z" fill="#F9E813"/>
<path fill-rule="evenodd" clip-rule="evenodd" d="M5.82784 9.61108L5.92465 9.49572L6.27075 9.78613L6.17395 9.9015L5.82784 9.61108Z" fill="#F9E813"/>
<path fill-rule="evenodd" clip-rule="evenodd" d="M5.50598 9.80725L6.04164 9.16888L6.15701 9.26569L5.62135 9.90406L5.50598 9.80725Z" fill="#060101"/>
<path fill-rule="evenodd" clip-rule="evenodd" d="M5.78287 10.0396L6.31852 9.40118L6.43389 9.49799L5.89824 10.1364L5.78287 10.0396Z" fill="#060101"/>
<path fill-rule="evenodd" clip-rule="evenodd" d="M5.49021 9.63855L5.58702 9.52318L5.70238 9.61999L5.60558 9.73536L5.49021 9.63855Z" fill="#F9E813"/>
<path fill-rule="evenodd" clip-rule="evenodd" d="M5.7963 9.2738L5.8931 9.15844L6.00847 9.25524L5.91166 9.37061L5.7963 9.2738Z" fill="#F9E813"/>
<path fill-rule="evenodd" clip-rule="evenodd" d="M5.55096 9.37878L5.64776 9.26342L5.8785 9.45703L5.78169 9.57239L5.55096 9.37878Z" fill="#F9E813"/>
<path fill-rule="evenodd" clip-rule="evenodd" d="M9.36153 9.04138L9.65195 9.38749L9.42121 9.5811L9.1308 9.23499L9.36153 9.04138Z" fill="#F9E813"/>
<path fill-rule="evenodd" clip-rule="evenodd" d="M9.1162 8.9364L9.65185 9.57477L9.53648 9.67158L9.00083 9.03321L9.1162 8.9364Z" fill="#060101"/>
<path fill-rule="evenodd" clip-rule="evenodd" d="M9.0239 9.01392L9.31432 9.36002L9.19895 9.45683L8.90853 9.11072L9.0239 9.01392Z" fill="#F9E813"/>
<path fill-rule="evenodd" clip-rule="evenodd" d="M9.32999 9.37866L9.6204 9.72477L9.50503 9.82157L9.21462 9.47547L9.32999 9.37866Z" fill="#F9E813"/>
<path fill-rule="evenodd" clip-rule="evenodd" d="M8.74702 9.24622L8.94063 9.47695L8.59452 9.76737L8.40091 9.53663L8.74702 9.24622Z" fill="#F9E813"/>
<path fill-rule="evenodd" clip-rule="evenodd" d="M9.12963 9.70215L9.32324 9.93288L8.97714 10.2233L8.78353 9.99256L9.12963 9.70215Z" fill="#F9E813"/>
<path fill-rule="evenodd" clip-rule="evenodd" d="M8.97659 9.51978L9.07339 9.63514L8.72729 9.92556L8.63048 9.81019L8.97659 9.51978Z" fill="#F9E813"/>
<path fill-rule="evenodd" clip-rule="evenodd" d="M8.83931 9.16882L9.37497 9.80719L9.2596 9.904L8.72394 9.26563L8.83931 9.16882Z" fill="#060101"/>
<path fill-rule="evenodd" clip-rule="evenodd" d="M8.56242 9.40112L9.09808 10.0395L8.98271 10.1363L8.44706 9.49793L8.56242 9.40112Z" fill="#060101"/>
<path fill-rule="evenodd" clip-rule="evenodd" d="M9.00813 9.1825L9.10493 9.29786L8.98956 9.39467L8.89276 9.2793L9.00813 9.1825Z" fill="#F9E813"/>
<path fill-rule="evenodd" clip-rule="evenodd" d="M9.31422 9.54736L9.41102 9.66273L9.29565 9.75954L9.19885 9.64417L9.31422 9.54736Z" fill="#F9E813"/>
<path fill-rule="evenodd" clip-rule="evenodd" d="M9.25346 9.28748L9.35027 9.40284L9.11953 9.59645L9.02273 9.48109L9.25346 9.28748Z" fill="#F9E813"/>
<path fill-rule="evenodd" clip-rule="evenodd" d="M7.84902 5.75305H7.02381V6.35397C7.02381 6.35397 7.08505 6.66429 7.43642 6.66429C7.78778 6.66429 7.84902 6.35397 7.84902 6.35397V5.75305ZM7.38095 5.99402C7.38095 6.06056 7.32765 6.1145 7.26191 6.1145C7.19616 6.1145 7.14286 6.06056 7.14286 5.99402C7.14286 5.92748 7.19616 5.87353 7.26191 5.87353C7.32765 5.87353 7.38095 5.92748 7.38095 5.99402ZM7.26191 6.59643C7.32765 6.59643 7.38095 6.54248 7.38095 6.47594C7.38095 6.4094 7.32765 6.35546 7.26191 6.35546C7.19616 6.35546 7.14286 6.4094 7.14286 6.47594C7.14286 6.54248 7.19616 6.59643 7.26191 6.59643ZM7.7381 6.47594C7.7381 6.54248 7.6848 6.59643 7.61905 6.59643C7.5533 6.59643 7.5 6.54248 7.5 6.47594C7.5 6.4094 7.5533 6.35546 7.61905 6.35546C7.6848 6.35546 7.7381 6.4094 7.7381 6.47594ZM7.44048 6.35546C7.50623 6.35546 7.55953 6.30152 7.55953 6.23498C7.55953 6.16844 7.50623 6.1145 7.44048 6.1145C7.37473 6.1145 7.32143 6.16844 7.32143 6.23498C7.32143 6.30152 7.37473 6.35546 7.44048 6.35546ZM7.7381 5.99402C7.7381 6.06056 7.6848 6.1145 7.61905 6.1145C7.5533 6.1145 7.5 6.06056 7.5 5.99402C7.5 5.92748 7.5533 5.87353 7.61905 5.87353C7.6848 5.87353 7.7381 5.92748 7.7381 5.99402Z" fill="#013399"/>
<path fill-rule="evenodd" clip-rule="evenodd" d="M7.84902 7.07837H7.02381V7.67929C7.02381 7.67929 7.08505 7.98961 7.43642 7.98961C7.78778 7.98961 7.84902 7.67929 7.84902 7.67929V7.07837ZM7.38095 7.31933C7.38095 7.38587 7.32765 7.43981 7.26191 7.43981C7.19616 7.43981 7.14286 7.38587 7.14286 7.31933C7.14286 7.25279 7.19616 7.19885 7.26191 7.19885C7.32765 7.19885 7.38095 7.25279 7.38095 7.31933ZM7.26191 7.92174C7.32765 7.92174 7.38095 7.8678 7.38095 7.80126C7.38095 7.73472 7.32765 7.68078 7.26191 7.68078C7.19616 7.68078 7.14286 7.73472 7.14286 7.80126C7.14286 7.8678 7.19616 7.92174 7.26191 7.92174ZM7.7381 7.80126C7.7381 7.8678 7.6848 7.92174 7.61905 7.92174C7.5533 7.92174 7.5 7.8678 7.5 7.80126C7.5 7.73472 7.5533 7.68078 7.61905 7.68078C7.6848 7.68078 7.7381 7.73472 7.7381 7.80126ZM7.44048 7.68078C7.50623 7.68078 7.55953 7.62684 7.55953 7.5603C7.55953 7.49376 7.50623 7.43981 7.44048 7.43981C7.37473 7.43981 7.32143 7.49376 7.32143 7.5603C7.32143 7.62684 7.37473 7.68078 7.44048 7.68078ZM7.7381 7.31933C7.7381 7.38587 7.6848 7.43981 7.61905 7.43981C7.5533 7.43981 7.5 7.38587 7.5 7.31933C7.5 7.25279 7.5533 7.19885 7.61905 7.19885C7.6848 7.19885 7.7381 7.25279 7.7381 7.31933Z" fill="#013399"/>
<path fill-rule="evenodd" clip-rule="evenodd" d="M8.92045 7.07837H8.09524V7.67929C8.09524 7.67929 8.15647 7.98961 8.50784 7.98961C8.85921 7.98961 8.92045 7.67929 8.92045 7.67929V7.07837ZM8.45238 7.31933C8.45238 7.38587 8.39908 7.43981 8.33333 7.43981C8.26758 7.43981 8.21429 7.38587 8.21429 7.31933C8.21429 7.25279 8.26758 7.19885 8.33333 7.19885C8.39908 7.19885 8.45238 7.25279 8.45238 7.31933ZM8.33333 7.92174C8.39908 7.92174 8.45238 7.8678 8.45238 7.80126C8.45238 7.73472 8.39908 7.68078 8.33333 7.68078C8.26758 7.68078 8.21429 7.73472 8.21429 7.80126C8.21429 7.8678 8.26758 7.92174 8.33333 7.92174ZM8.80952 7.80126C8.80952 7.8678 8.75622 7.92174 8.69048 7.92174C8.62473 7.92174 8.57143 7.8678 8.57143 7.80126C8.57143 7.73472 8.62473 7.68078 8.69048 7.68078C8.75622 7.68078 8.80952 7.73472 8.80952 7.80126ZM8.5119 7.68078C8.57765 7.68078 8.63095 7.62684 8.63095 7.5603C8.63095 7.49376 8.57765 7.43981 8.5119 7.43981C8.44616 7.43981 8.39286 7.49376 8.39286 7.5603C8.39286 7.62684 8.44616 7.68078 8.5119 7.68078ZM8.80952 7.31933C8.80952 7.38587 8.75622 7.43981 8.69048 7.43981C8.62473 7.43981 8.57143 7.38587 8.57143 7.31933C8.57143 7.25279 8.62473 7.19885 8.69048 7.19885C8.75622 7.19885 8.80952 7.25279 8.80952 7.31933Z" fill="#013399"/>
<path fill-rule="evenodd" clip-rule="evenodd" d="M6.77759 7.07837H5.95238V7.67929C5.95238 7.67929 6.01362 7.98961 6.36499 7.98961C6.71636 7.98961 6.77759 7.67929 6.77759 7.67929V7.07837ZM6.30953 7.31933C6.30953 7.38587 6.25623 7.43981 6.19048 7.43981C6.12473 7.43981 6.07143 7.38587 6.07143 7.31933C6.07143 7.25279 6.12473 7.19885 6.19048 7.19885C6.25623 7.19885 6.30953 7.25279 6.30953 7.31933ZM6.19048 7.92174C6.25623 7.92174 6.30953 7.8678 6.30953 7.80126C6.30953 7.73472 6.25623 7.68078 6.19048 7.68078C6.12473 7.68078 6.07143 7.73472 6.07143 7.80126C6.07143 7.8678 6.12473 7.92174 6.19048 7.92174ZM6.66667 7.80126C6.66667 7.8678 6.61337 7.92174 6.54762 7.92174C6.48187 7.92174 6.42858 7.8678 6.42858 7.80126C6.42858 7.73472 6.48187 7.68078 6.54762 7.68078C6.61337 7.68078 6.66667 7.73472 6.66667 7.80126ZM6.36905 7.68078C6.4348 7.68078 6.4881 7.62684 6.4881 7.5603C6.4881 7.49376 6.4348 7.43981 6.36905 7.43981C6.3033 7.43981 6.25 7.49376 6.25 7.5603C6.25 7.62684 6.3033 7.68078 6.36905 7.68078ZM6.66667 7.31933C6.66667 7.38587 6.61337 7.43981 6.54762 7.43981C6.48187 7.43981 6.42858 7.38587 6.42858 7.31933C6.42858 7.25279 6.48187 7.19885 6.54762 7.19885C6.61337 7.19885 6.66667 7.25279 6.66667 7.31933Z" fill="#013399"/>
<path fill-rule="evenodd" clip-rule="evenodd" d="M7.84902 8.40369H7.02381V9.00461C7.02381 9.00461 7.08505 9.31493 7.43642 9.31493C7.78778 9.31493 7.84902 9.00461 7.84902 9.00461V8.40369ZM7.38095 8.64465C7.38095 8.71119 7.32765 8.76513 7.26191 8.76513C7.19616 8.76513 7.14286 8.71119 7.14286 8.64465C7.14286 8.57811 7.19616 8.52417 7.26191 8.52417C7.32765 8.52417 7.38095 8.57811 7.38095 8.64465ZM7.26191 9.24706C7.32765 9.24706 7.38095 9.19312 7.38095 9.12658C7.38095 9.06004 7.32765 9.0061 7.26191 9.0061C7.19616 9.0061 7.14286 9.06004 7.14286 9.12658C7.14286 9.19312 7.19616 9.24706 7.26191 9.24706ZM7.7381 9.12658C7.7381 9.19312 7.6848 9.24706 7.61905 9.24706C7.5533 9.24706 7.5 9.19312 7.5 9.12658C7.5 9.06004 7.5533 9.0061 7.61905 9.0061C7.6848 9.0061 7.7381 9.06004 7.7381 9.12658ZM7.44048 9.0061C7.50623 9.0061 7.55953 8.95215 7.55953 8.88561C7.55953 8.81907 7.50623 8.76513 7.44048 8.76513C7.37473 8.76513 7.32143 8.81907 7.32143 8.88561C7.32143 8.95215 7.37473 9.0061 7.44048 9.0061ZM7.7381 8.64465C7.7381 8.71119 7.6848 8.76513 7.61905 8.76513C7.5533 8.76513 7.5 8.71119 7.5 8.64465C7.5 8.57811 7.5533 8.52417 7.61905 8.52417C7.6848 8.52417 7.7381 8.57811 7.7381 8.64465Z" fill="#013399"/>
</g>
</svg>
