<svg width="20" height="15" viewBox="0 0 20 15" fill="none" xmlns="http://www.w3.org/2000/svg">
<mask id="mask0_1300_27353" style="mask-type:luminance" maskUnits="userSpaceOnUse" x="0" y="0" width="20" height="15">
<rect width="20" height="15" fill="white"/>
</mask>
<g mask="url(#mask0_1300_27353)">
<path fill-rule="evenodd" clip-rule="evenodd" d="M0 0V15H20V0H0Z" fill="#2E42A5"/>
<mask id="mask1_1300_27353" style="mask-type:luminance" maskUnits="userSpaceOnUse" x="0" y="0" width="20" height="15">
<path fill-rule="evenodd" clip-rule="evenodd" d="M0 0V15H20V0H0Z" fill="white"/>
</mask>
<g mask="url(#mask1_1300_27353)">
<path fill-rule="evenodd" clip-rule="evenodd" d="M0 0V5H20V0H0Z" fill="#F7FCFF"/>
<path fill-rule="evenodd" clip-rule="evenodd" d="M0 10V15H20V10H0Z" fill="#C51918"/>
<path fill-rule="evenodd" clip-rule="evenodd" d="M8.58764 3.1477C8.58764 3.1477 7.27218 2.52649 5.63606 2.52649C3.99993 2.52649 2.68447 3.1477 2.68447 3.1477C2.68447 3.1477 2.83086 5.6444 3.06224 6.96702C3.16103 7.53174 3.63586 8.35539 4.06574 8.74524C4.55572 9.18958 5.63606 9.71601 5.63606 9.71601C5.94869 9.50059 6.53323 9.40371 7.28037 8.74524C8.02752 8.08676 8.21323 6.96702 8.21323 6.96702L8.58764 3.1477Z" fill="#2E42A5"/>
<path d="M8.41373 3.06604L8.96156 3.33962L8.58549 7.10375C8.45377 7.90042 8.1242 8.52867 7.59715 8.99317C7.31124 9.24514 7.03216 9.43341 6.73295 9.58985C6.56406 9.67815 5.8576 10.0421 5.86375 10.0391C5.79297 10.0732 5.73929 10.1031 5.69569 10.1331L5.62736 10.1802L5.55359 10.1443C4.82187 9.78771 4.13917 9.30787 3.79992 9.00021C3.3368 8.58023 2.8485 7.72082 2.7444 7.12572C2.58874 6.23594 2.44915 5.01037 2.35119 3.33962L2.84331 3.08216C2.94054 4.74033 3.0579 6.06215 3.21075 6.93587C3.30118 7.4528 3.75146 8.2453 4.16223 8.61781C4.46581 8.89312 4.9549 9.19839 5.62736 9.5304C5.66747 9.50689 5.71193 9.48362 5.76278 9.45912C5.76422 9.45842 6.22166 9.25528 6.38064 9.17216C6.65948 9.02637 6.91867 8.85153 7.18552 8.61634C7.65337 8.20401 7.94538 7.64871 8.06347 6.94328L8.41373 3.06604Z" fill="#C51918"/>
<path fill-rule="evenodd" clip-rule="evenodd" d="M3.46378 6.89015C3.46378 6.89015 3.58301 7.25494 3.80345 7.66462C4.12717 7.74999 4.32525 7.7455 4.38785 7.67542C4.56897 7.4727 5.21337 7.38608 5.33361 7.55925C5.40779 7.66609 5.66852 7.73995 5.95362 7.64223L5.92184 7.64785C5.97136 7.62985 6.08735 7.58387 6.15885 7.55553L6.21707 7.53258C6.3244 7.49208 6.40327 7.47082 6.48361 7.46485C6.58432 7.45736 6.6809 7.47611 6.78323 7.52484C7.00817 7.63194 7.28572 7.68185 7.47473 7.64942C7.70576 7.24703 7.87051 6.89015 7.87051 6.89015L6.77345 5.83728L6.33741 6.31045L5.61293 5.27759L5.00639 6.31045L4.5413 5.83728L3.46378 6.89015ZM4.098 8.13409C4.04736 8.06581 3.9995 7.99525 3.95451 7.92406C4.2353 7.97526 4.42596 7.94834 4.53203 7.82962C4.58213 7.77354 4.73078 7.71916 4.89991 7.69643C4.97876 7.68583 5.05441 7.68319 5.11241 7.68872C5.13902 7.69126 5.16047 7.69542 5.17491 7.70041C5.17959 7.70203 5.17944 7.70182 5.17459 7.69487L5.17371 7.69361C5.30304 7.87852 5.65414 7.97763 5.98541 7.85719L5.95362 7.86281C6.04323 7.83527 6.20461 7.77181 6.26261 7.74901L6.2828 7.74111C6.37477 7.70641 6.43816 7.68932 6.49728 7.68493C6.56546 7.67986 6.6298 7.69235 6.70278 7.7271C6.90197 7.82195 7.13352 7.87838 7.33761 7.87984C7.2941 7.9502 7.24918 8.02018 7.20335 8.08817C7.0447 8.12499 6.79926 8.07658 6.60127 7.96846C6.50872 7.91793 6.42035 7.89825 6.3282 7.90611C6.25534 7.91232 6.18468 7.93415 6.08923 7.97546C6.08366 7.97787 6.06407 7.98677 6.03768 7.99877C5.97525 8.02715 5.8748 8.0728 5.83204 8.09063L5.86794 8.0834C5.62016 8.17898 5.40327 8.10852 5.34135 8.00624C5.23085 7.82372 4.65171 7.913 4.48878 8.12215C4.44534 8.17791 4.31425 8.18809 4.098 8.13409ZM4.31362 8.38968C4.32583 8.40222 4.33816 8.41457 4.3506 8.4267C4.9151 8.97711 5.61293 9.24691 5.61293 9.24691C5.61293 9.24691 6.4441 8.99539 6.91583 8.46586C6.95609 8.42068 6.99642 8.37174 7.03653 8.32C6.8645 8.31149 6.6754 8.25547 6.51124 8.16583C6.45091 8.13289 6.39898 8.12133 6.34386 8.12603C6.29511 8.13018 6.24173 8.14668 6.16338 8.18058C6.16127 8.1815 6.15615 8.1838 6.14862 8.18719C6.10065 8.2088 5.95495 8.2744 5.86794 8.30399L5.90384 8.29676C5.61183 8.41851 5.30179 8.32239 5.18087 8.14004C5.17015 8.13582 5.15334 8.1321 5.13203 8.12977C5.08351 8.12446 5.01945 8.12702 4.95248 8.13735C4.80898 8.15947 4.68366 8.21205 4.64221 8.26524C4.57254 8.35468 4.46328 8.39418 4.31362 8.38968Z" fill="white"/>
<path fill-rule="evenodd" clip-rule="evenodd" d="M4.46676 3.67893H4.02731L4.36814 3.35963L4.02731 3.02222H4.46676L4.65231 2.6947L4.8386 3.02222H5.27731L4.95351 3.33936L5.24102 3.67893H4.8386L4.65231 4.02455L4.46676 3.67893Z" fill="#FECA00"/>
<path fill-rule="evenodd" clip-rule="evenodd" d="M6.53785 3.67893H6.0984L6.43923 3.35963L6.0984 3.02222H6.53785L6.7234 2.6947L6.90969 3.02222H7.3484L7.0246 3.33936L7.31211 3.67893H6.90969L6.7234 4.02455L6.53785 3.67893Z" fill="#FECA00"/>
<path fill-rule="evenodd" clip-rule="evenodd" d="M5.37494 4.72971H4.93549L5.27633 4.41041L4.93549 4.073H5.37494L5.56049 3.74548L5.74679 4.073H6.18549L5.8617 4.39014L6.14921 4.72971H5.74679L5.56049 5.07533L5.37494 4.72971Z" fill="#FECA00"/>
</g>
</g>
</svg>
