<svg width="20" height="15" viewBox="0 0 20 15" fill="none" xmlns="http://www.w3.org/2000/svg">
<mask id="mask0_1300_27332" style="mask-type:luminance" maskUnits="userSpaceOnUse" x="0" y="0" width="20" height="15">
<rect width="20" height="15" fill="white"/>
</mask>
<g mask="url(#mask0_1300_27332)">
<path fill-rule="evenodd" clip-rule="evenodd" d="M0 0V15H20V0H0Z" fill="#3D58DB"/>
<mask id="mask1_1300_27332" style="mask-type:luminance" maskUnits="userSpaceOnUse" x="0" y="0" width="20" height="15">
<path fill-rule="evenodd" clip-rule="evenodd" d="M0 0V15H20V0H0Z" fill="white"/>
</mask>
<g mask="url(#mask1_1300_27332)">
<path fill-rule="evenodd" clip-rule="evenodd" d="M0 0V5H20V0H0Z" fill="#F7FCFF"/>
<path fill-rule="evenodd" clip-rule="evenodd" d="M0 10V15H20V10H0Z" fill="#E31D1C"/>
<path d="M9.75245 3.76892L10.0632 3.73586L10.0335 3.45642H9.75245H3.96552H3.67338L3.65373 3.7479L3.96552 3.76892L3.65372 3.74795L3.65371 3.74809L3.65368 3.74859L3.65355 3.7505L3.65305 3.75796L3.65115 3.78687L3.64406 3.89699C3.63803 3.99223 3.62956 4.12926 3.61982 4.29673C3.60034 4.63157 3.57572 5.08858 3.55521 5.57681C3.51478 6.53906 3.48798 7.66555 3.55799 8.19163C3.6946 9.21818 4.31968 11.5226 6.73739 12.567L6.86348 12.6214L6.98887 12.5654C9.28525 11.5386 10.0533 9.47067 10.2305 8.19334C10.3199 7.54869 10.2744 6.42066 10.2117 5.48329C10.1799 5.00827 10.1428 4.57181 10.1137 4.25419C10.0991 4.09531 10.0865 3.96602 10.0775 3.87632L10.067 3.77267L10.0642 3.74544L10.0635 3.73839L10.0633 3.73655L10.0632 3.73606L10.0632 3.73592L9.75245 3.76892Z" fill="#E31D1C" stroke="white" stroke-width="0.625"/>
<mask id="mask2_1300_27332" style="mask-type:luminance" maskUnits="userSpaceOnUse" x="3" y="3" width="8" height="10">
<path d="M9.75245 3.76892L10.0632 3.73586L10.0335 3.45642H9.75245H3.96552H3.67338L3.65373 3.7479L3.96552 3.76892L3.65372 3.74795L3.65371 3.74809L3.65368 3.74859L3.65355 3.7505L3.65305 3.75796L3.65115 3.78687L3.64406 3.89699C3.63803 3.99223 3.62956 4.12926 3.61982 4.29673C3.60034 4.63157 3.57572 5.08858 3.55521 5.57681C3.51478 6.53906 3.48798 7.66555 3.55799 8.19163C3.6946 9.21818 4.31968 11.5226 6.73739 12.567L6.86348 12.6214L6.98887 12.5654C9.28525 11.5386 10.0533 9.47067 10.2305 8.19334C10.3199 7.54869 10.2744 6.42066 10.2117 5.48329C10.1799 5.00827 10.1428 4.57181 10.1137 4.25419C10.0991 4.09531 10.0865 3.96602 10.0775 3.87632L10.067 3.77267L10.0642 3.74544L10.0635 3.73839L10.0633 3.73655L10.0632 3.73606L10.0632 3.73592L9.75245 3.76892Z" fill="white" stroke="white" stroke-width="0.625"/>
</mask>
<g mask="url(#mask2_1300_27332)">
<path fill-rule="evenodd" clip-rule="evenodd" d="M6.41069 4.11853C6.41069 4.11853 6.53974 4.31517 6.59752 4.61585C6.6553 4.91652 6.66526 5.44335 6.66526 5.44335L5.44096 5.29261V6.22091L6.69261 6.06151L6.67227 6.9426C6.67227 6.9426 6.29782 6.98141 5.9907 6.9426C5.68359 6.90378 5.07858 6.74116 5.07858 6.74116V7.80389C5.07858 7.80389 5.69326 7.60724 5.9907 7.56212C6.28815 7.51699 6.67227 7.56212 6.67227 7.56212V8.86731H7.18041V7.56212C7.18041 7.56212 7.73589 7.51383 8.06725 7.56611C8.3986 7.61838 8.71292 7.80389 8.71292 7.80389V6.74116C8.71292 6.74116 8.39449 6.8998 8.09414 6.93928C7.7938 6.97876 7.18041 6.9426 7.18041 6.9426L7.20076 6.06151C7.20076 6.06151 7.61652 6.01846 7.84978 6.05013C8.08305 6.08179 8.375 6.22091 8.375 6.22091V5.29261C8.375 5.29261 8.09044 5.44744 7.86655 5.47553C7.64265 5.50362 7.1734 5.44335 7.1734 5.44335C7.1734 5.44335 7.18172 4.89968 7.22986 4.63495C7.27801 4.37023 7.41433 4.11853 7.41433 4.11853H6.41069Z" fill="#F7FCFF"/>
<path fill-rule="evenodd" clip-rule="evenodd" d="M4.31083 10.1533C4.31083 10.1533 4.58551 9.56373 5.03247 9.45163C5.47943 9.33954 5.94811 9.80246 5.94811 9.80246C5.94811 9.80246 6.23429 8.86719 6.93186 8.86719C7.62942 8.86719 7.87424 9.80246 7.87424 9.80246C7.87424 9.80246 8.17186 9.45163 8.59984 9.45163C9.02783 9.45163 9.42435 10.1533 9.42435 10.1533C9.42435 10.1533 8.14597 12.4742 6.86759 12.4742C5.58921 12.4742 4.31083 10.1533 4.31083 10.1533Z" fill="#2E42A5"/>
</g>
</g>
</g>
</svg>
