<svg width="20" height="15" viewBox="0 0 20 15" fill="none" xmlns="http://www.w3.org/2000/svg">
<mask id="mask0_1300_27330" style="mask-type:luminance" maskUnits="userSpaceOnUse" x="0" y="0" width="20" height="15">
<rect width="20" height="15" fill="white"/>
</mask>
<g mask="url(#mask0_1300_27330)">
<path fill-rule="evenodd" clip-rule="evenodd" d="M0 0V15H20V0H0Z" fill="#FFB400"/>
<mask id="mask1_1300_27330" style="mask-type:luminance" maskUnits="userSpaceOnUse" x="0" y="0" width="20" height="15">
<path fill-rule="evenodd" clip-rule="evenodd" d="M0 0V15H20V0H0Z" fill="white"/>
</mask>
<g mask="url(#mask1_1300_27330)">
<path fill-rule="evenodd" clip-rule="evenodd" d="M0 0V3.75H20V0H0Z" fill="#C51918"/>
<path fill-rule="evenodd" clip-rule="evenodd" d="M0 11.25V15H20V11.25H0Z" fill="#C51918"/>
<rect x="3.13" y="6.41998" width="0.7" height="3.64" fill="#F1F9FF"/>
<path fill-rule="evenodd" clip-rule="evenodd" d="M4.11 5.78998H2.85V6.13998H3.06V6.41998H3.9V6.13998H4.11V5.78998Z" fill="#C88A02"/>
<path fill-rule="evenodd" clip-rule="evenodd" d="M3.9 10.27H4.11V10.62H2.85V10.27H3.06V9.98999H3.9V10.27Z" fill="#C88A02"/>
<path fill-rule="evenodd" clip-rule="evenodd" d="M3.48 5.85997C3.63233 5.85997 3.64781 5.80261 3.73769 5.71693C3.80747 5.65041 3.97 5.56791 3.97 5.47497C3.97 5.26234 3.75062 5.08997 3.48 5.08997C3.20938 5.08997 2.99 5.26234 2.99 5.47497C2.99 5.57851 3.10192 5.64774 3.18655 5.71693C3.27571 5.78983 3.34116 5.85997 3.48 5.85997Z" fill="#AD1619"/>
<path fill-rule="evenodd" clip-rule="evenodd" d="M2.85 10.62H4.11V11.18C4.11 11.18 3.9525 11.11 3.795 11.11C3.6375 11.11 3.48 11.18 3.48 11.18C3.48 11.18 3.3225 11.11 3.165 11.11C3.0075 11.11 2.85 11.18 2.85 11.18V10.62Z" fill="#005BBF"/>
<mask id="mask2_1300_27330" style="mask-type:luminance" maskUnits="userSpaceOnUse" x="2" y="10" width="3" height="2">
<path fill-rule="evenodd" clip-rule="evenodd" d="M2.85 10.62H4.11V11.18C4.11 11.18 3.9525 11.11 3.795 11.11C3.6375 11.11 3.48 11.18 3.48 11.18C3.48 11.18 3.3225 11.11 3.165 11.11C3.0075 11.11 2.85 11.18 2.85 11.18V10.62Z" fill="white"/>
</mask>
<g mask="url(#mask2_1300_27330)">
<path d="M2.83861 11.07L2.8111 11.0029C2.92459 10.9524 3.03848 10.9271 3.15254 10.9271C3.22624 10.9271 3.26472 10.9373 3.33014 10.9665C3.3876 10.992 3.41739 11 3.48023 11C3.54308 11 3.57286 10.992 3.63033 10.9665C3.69575 10.9373 3.73423 10.9271 3.80792 10.9271C3.92198 10.9271 4.03588 10.9524 4.14936 11.0029L4.12186 11.07C4.01689 11.0232 3.91232 11 3.80792 11C3.74508 11 3.71529 11.0079 3.65783 11.0335C3.59241 11.0626 3.55393 11.0729 3.48023 11.0729C3.40654 11.0729 3.36806 11.0626 3.30264 11.0335C3.24517 11.0079 3.21539 11 3.15254 11C3.04815 11 2.94358 11.0232 2.83861 11.07Z" fill="white"/>
<path d="M2.83861 10.8599L2.8111 10.7929C2.92459 10.7424 3.03848 10.717 3.15254 10.717C3.22624 10.717 3.26472 10.7273 3.33014 10.7564C3.3876 10.782 3.41739 10.79 3.48023 10.79C3.54308 10.79 3.57286 10.782 3.63033 10.7564C3.69575 10.7273 3.73423 10.717 3.80792 10.717C3.92198 10.717 4.03588 10.7424 4.14936 10.7929L4.12186 10.8599C4.01689 10.8132 3.91232 10.79 3.80792 10.79C3.74508 10.79 3.71529 10.7979 3.65783 10.8235C3.59241 10.8526 3.55393 10.8629 3.48023 10.8629C3.40654 10.8629 3.36806 10.8526 3.30264 10.8235C3.24517 10.7979 3.21539 10.79 3.15254 10.79C3.04815 10.79 2.94358 10.8132 2.83861 10.8599Z" fill="white"/>
</g>
<rect x="9.99" y="6.41998" width="0.7" height="3.64" fill="#F1F9FF"/>
<path fill-rule="evenodd" clip-rule="evenodd" d="M10.97 5.78998H9.71V6.13998H9.92V6.41998H10.76V6.13998H10.97V5.78998Z" fill="#C88A02"/>
<path fill-rule="evenodd" clip-rule="evenodd" d="M10.76 10.27H10.97V10.62H9.71V10.27H9.92V9.98999H10.76V10.27Z" fill="#C88A02"/>
<path fill-rule="evenodd" clip-rule="evenodd" d="M10.34 5.85997C10.4923 5.85997 10.5078 5.80261 10.5977 5.71693C10.6675 5.65041 10.83 5.56791 10.83 5.47497C10.83 5.26234 10.6106 5.08997 10.34 5.08997C10.0694 5.08997 9.85 5.26234 9.85 5.47497C9.85 5.57851 9.96192 5.64774 10.0466 5.71693C10.1357 5.78983 10.2012 5.85997 10.34 5.85997Z" fill="#AD1619"/>
<path fill-rule="evenodd" clip-rule="evenodd" d="M9.71 10.62H10.97V11.18C10.97 11.18 10.8125 11.11 10.655 11.11C10.4975 11.11 10.34 11.18 10.34 11.18C10.34 11.18 10.1825 11.11 10.025 11.11C9.8675 11.11 9.71 11.18 9.71 11.18V10.62Z" fill="#005BBF"/>
<mask id="mask3_1300_27330" style="mask-type:luminance" maskUnits="userSpaceOnUse" x="9" y="10" width="2" height="2">
<path fill-rule="evenodd" clip-rule="evenodd" d="M9.71 10.62H10.97V11.18C10.97 11.18 10.8125 11.11 10.655 11.11C10.4975 11.11 10.34 11.18 10.34 11.18C10.34 11.18 10.1825 11.11 10.025 11.11C9.8675 11.11 9.71 11.18 9.71 11.18V10.62Z" fill="white"/>
</mask>
<g mask="url(#mask3_1300_27330)">
<path d="M9.69861 11.07L9.6711 11.0029C9.78459 10.9524 9.89848 10.9271 10.0125 10.9271C10.0862 10.9271 10.1247 10.9373 10.1901 10.9665C10.2476 10.992 10.2774 11 10.3402 11C10.4031 11 10.4329 10.992 10.4903 10.9665C10.5557 10.9373 10.5942 10.9271 10.6679 10.9271C10.782 10.9271 10.8959 10.9524 11.0094 11.0029L10.9819 11.07C10.8769 11.0232 10.7723 11 10.6679 11C10.6051 11 10.5753 11.0079 10.5178 11.0335C10.4524 11.0626 10.4139 11.0729 10.3402 11.0729C10.2665 11.0729 10.2281 11.0626 10.1626 11.0335C10.1052 11.0079 10.0754 11 10.0125 11C9.90815 11 9.80358 11.0232 9.69861 11.07Z" fill="white"/>
<path d="M9.69861 10.8599L9.6711 10.7929C9.78459 10.7424 9.89848 10.717 10.0125 10.717C10.0862 10.717 10.1247 10.7273 10.1901 10.7564C10.2476 10.782 10.2774 10.79 10.3402 10.79C10.4031 10.79 10.4329 10.782 10.4903 10.7564C10.5557 10.7273 10.5942 10.717 10.6679 10.717C10.782 10.717 10.8959 10.7424 11.0094 10.7929L10.9819 10.8599C10.8769 10.8132 10.7723 10.79 10.6679 10.79C10.6051 10.79 10.5753 10.7979 10.5178 10.8235C10.4524 10.8526 10.4139 10.8629 10.3402 10.8629C10.2665 10.8629 10.2281 10.8526 10.1626 10.8235C10.1052 10.7979 10.0754 10.79 10.0125 10.79C9.90815 10.79 9.80358 10.8132 9.69861 10.8599Z" fill="white"/>
</g>
<path fill-rule="evenodd" clip-rule="evenodd" d="M3.11747 9.79993C3.24367 9.64692 3.31425 9.50773 3.31425 9.35989C3.31425 9.26667 3.28651 9.18616 3.23791 9.12039L3.24612 9.11669C3.24536 9.11704 3.38457 9.05636 3.43303 9.03312C3.52313 8.98992 3.6025 8.94416 3.67989 8.88788C3.7293 8.85195 3.7955 8.81282 3.89641 8.75863L3.99125 8.70819L4.01685 8.69459C4.06589 8.66843 4.10242 8.64837 4.13635 8.62869C4.24208 8.56736 4.31195 8.51667 4.36539 8.4489C4.49196 8.2884 4.46568 8.07082 4.28831 7.95006C4.20141 7.89089 4.08415 7.85694 3.91225 7.83022L3.87665 7.82471L3.6664 7.79212C3.58415 7.7792 3.51075 7.76714 3.44531 7.75571C3.87566 7.6841 4.49019 7.71042 4.7605 7.84999L5.01741 7.35239C4.46657 7.06799 3.21149 7.09703 2.74265 7.4199C2.39878 7.65672 2.44492 8.0147 2.80271 8.16885C2.95221 8.23326 3.1471 8.276 3.50776 8.33394C3.44732 8.369 3.39721 8.40103 3.35052 8.43498C3.30318 8.46942 3.25245 8.49866 3.19092 8.52816C3.16149 8.54227 3.07434 8.58054 3.0344 8.59808L3.01432 8.60692C2.72289 8.73943 2.58146 8.92274 2.62372 9.25366L2.6466 9.43279L2.68764 9.4454L3.11747 9.79993ZM2.75723 9.337L2.75634 9.33958L2.75702 9.33775L2.75723 9.337ZM10.4412 9.35989C10.4412 9.50773 10.5118 9.64692 10.638 9.79993L11.0678 9.4454L11.1089 9.43279L11.1317 9.25366C11.174 8.92274 11.0326 8.73943 10.7411 8.60692L10.7211 8.59808L10.721 8.59804C10.681 8.58049 10.594 8.54226 10.5645 8.52816C10.503 8.49866 10.4523 8.46942 10.4049 8.43498C10.3583 8.40103 10.3081 8.369 10.2477 8.33394C10.6084 8.276 10.8033 8.23326 10.9528 8.16885C11.3105 8.0147 11.3567 7.65672 11.0128 7.4199C10.544 7.09703 9.2889 7.06799 8.73806 7.35239L8.99497 7.84999C9.26528 7.71042 9.8798 7.6841 10.3102 7.75571C10.2447 7.76714 10.1713 7.7792 10.0891 7.79212L9.87879 7.82472L9.84321 7.83022C9.67132 7.85694 9.55405 7.89089 9.46715 7.95006C9.28978 8.07082 9.2635 8.2884 9.39008 8.4489C9.44352 8.51667 9.51339 8.56736 9.61912 8.62869C9.65305 8.64837 9.68957 8.66843 9.73862 8.69459L9.76429 8.70823L9.85905 8.75863C9.95997 8.81282 10.0262 8.85195 10.0756 8.88788C10.153 8.94416 10.2323 8.98992 10.3224 9.03312C10.3709 9.05636 10.5101 9.11704 10.5093 9.11669L10.5176 9.12039C10.469 9.18616 10.4412 9.26667 10.4412 9.35989Z" fill="#AD1619"/>
<path d="M3.7021 7.74994L3.90871 7.79268V8.10064C3.68865 8.27623 3.13 8.57217 3.13 8.57217V7.74994H3.7021Z" fill="#F1F9FF"/>
<path d="M10.1966 7.74994L9.99 7.79268V8.10064C10.2101 8.27623 10.7687 8.57217 10.7687 8.57217V7.74994H10.1966Z" fill="#F1F9FF"/>
<path fill-rule="evenodd" clip-rule="evenodd" d="M9.23499 4.50374V4.40125C8.87494 4.14284 8.49789 4.01364 8.10385 4.01364C7.72608 3.84647 7.34371 3.78158 6.95673 3.81897C6.95684 3.81777 6.95689 3.81717 6.95689 3.81717C6.37503 3.76023 5.78864 4.01364 5.78864 4.01364C5.19757 4.01364 4.65749 4.40125 4.65749 4.40125V4.50374L5.36351 5.21282C5.36351 5.21282 5.56224 5.89531 6.95402 5.73491V5.73664C6.95402 5.73664 7.87548 5.71149 7.94023 5.68995C7.96592 5.68141 7.99257 5.67363 8.01979 5.66568C8.20028 5.61299 8.40632 5.55283 8.52897 5.21282L9.23499 4.50374ZM6.95402 3.85033C6.93392 4.0864 6.8192 5.50948 6.95402 5.73011V3.85033Z" fill="#AD1619"/>
<path fill-rule="evenodd" clip-rule="evenodd" d="M5.19606 5.09346L5.19652 5.0913L4.69983 4.624L4.7478 4.57301L5.21387 5.01151L5.2258 4.95665C5.30205 4.97323 5.35778 4.97933 5.39027 4.97588V4.88075L5.49358 4.93667C5.5444 4.96417 5.61718 4.97156 5.71303 4.95596C5.78343 4.94451 5.83094 4.86275 5.84647 4.68852L5.87783 4.33679L5.98302 4.67388C6.03061 4.82642 6.10323 4.89366 6.2066 4.89366C6.30757 4.89366 6.34815 4.85665 6.35263 4.76335L6.36534 4.49874L6.485 4.73508C6.52811 4.82023 6.58757 4.85886 6.6721 4.85886C6.79301 4.85886 6.87377 4.75807 6.87377 4.59991H6.87606H7.01377H7.01606C7.01606 4.75807 7.09682 4.85886 7.21772 4.85886C7.30226 4.85886 7.36171 4.82023 7.40482 4.73508L7.52449 4.49874L7.53719 4.76335C7.54167 4.85665 7.58226 4.89366 7.68322 4.89366C7.7866 4.89366 7.85921 4.82642 7.90681 4.67388L8.012 4.33679L8.04336 4.68852C8.05889 4.86275 8.10639 4.94451 8.1768 4.95596C8.27265 4.97156 8.34543 4.96417 8.39624 4.93667L8.49956 4.88075V4.97588C8.53204 4.97933 8.58778 4.97323 8.66403 4.95665L8.68616 5.05844L9.20212 4.57301L9.25009 4.624L8.60802 5.22807C8.51435 5.40058 8.46717 5.51445 8.46717 5.56175C8.46717 5.63392 8.27943 5.67675 7.91302 5.72074C7.62596 5.75521 7.28719 5.77834 7.01009 5.7818V5.78225L6.97496 5.78213L6.93983 5.78225V5.7818C6.66272 5.77834 6.32395 5.75521 6.0369 5.72074C5.67048 5.67675 5.48274 5.63392 5.48274 5.56175C5.48274 5.55281 5.48105 5.54147 5.47768 5.52782C5.44073 5.48076 5.41476 5.40379 5.39747 5.33435C5.38125 5.30188 5.36272 5.26642 5.34189 5.22807L5.19964 5.09423L5.19606 5.09346ZM8.63696 5.10473C8.52232 5.12502 8.43954 5.12297 8.39561 5.08721C8.32691 5.1072 8.24632 5.10912 8.15431 5.09415C8.05604 5.07816 7.9876 5.01279 7.94642 4.90435C7.89266 4.97284 7.82469 5.01512 7.74326 5.02879C8.19121 5.09232 8.505 5.18162 8.505 5.18162C8.505 5.18162 8.49726 5.24796 8.47845 5.32596C8.49836 5.28513 8.52195 5.23976 8.54922 5.18968L8.55597 5.18093L8.63696 5.10473ZM7.53188 5.00219C7.49292 4.98283 7.46181 4.95476 7.43932 4.91858C7.40592 4.94808 7.36794 4.96965 7.32575 4.98296C7.39618 4.98835 7.46505 4.99486 7.53188 5.00219ZM7.07864 4.96934C7.02411 4.94414 6.97877 4.90379 6.94491 4.85209C6.91129 4.90343 6.86636 4.94357 6.81235 4.9688C6.84434 4.96785 6.87653 4.96718 6.90886 4.96682V4.9665L6.93693 4.96658L6.965 4.9665V4.96682C7.00311 4.96724 7.04101 4.9681 7.07864 4.96934ZM5.38885 5.17614L5.32359 5.11473C5.40193 5.1225 5.45992 5.11513 5.49421 5.08721C5.56292 5.1072 5.6435 5.10912 5.73552 5.09415C5.83379 5.07816 5.90222 5.01279 5.9434 4.90435C5.99561 4.97086 6.06121 5.01265 6.13952 5.02754C5.75331 5.0818 5.46515 5.15562 5.38885 5.17614ZM6.56104 4.98199C6.49322 4.98702 6.42682 4.99312 6.36225 4.99999C6.3992 4.98073 6.42885 4.95342 6.45051 4.91858C6.4831 4.94737 6.52006 4.96861 6.56104 4.98199ZM8.28313 5.56312C8.33218 5.58608 8.37149 5.56318 8.40257 5.51923C8.39988 5.53137 8.3982 5.54234 8.39752 5.55217C8.39341 5.55486 8.38712 5.5581 8.37886 5.56157C8.3558 5.57126 8.32059 5.58159 8.27478 5.59204C8.18473 5.61258 8.05657 5.633 7.90467 5.65124C7.60806 5.68685 7.25535 5.71029 6.97496 5.71213C6.69456 5.71029 6.34186 5.68685 6.04524 5.65124C5.89335 5.633 5.76518 5.61258 5.67514 5.59204C5.63674 5.58328 5.60579 5.57461 5.5832 5.56632C5.58568 5.56538 5.5882 5.56431 5.59074 5.56312C5.74365 5.49157 6.75483 5.42442 6.93693 5.41284C7.11903 5.42442 8.13021 5.49157 8.28313 5.56312ZM8.47597 5.5503L8.4749 5.55153L8.47554 5.55064L8.47597 5.5503Z" fill="#C88A02"/>
<path fill-rule="evenodd" clip-rule="evenodd" d="M6.94514 3.34187C7.06112 3.34187 7.15514 3.24785 7.15514 3.13187C7.15514 3.0159 7.06112 2.92188 6.94514 2.92188C6.82916 2.92188 6.73514 3.0159 6.73514 3.13187C6.73514 3.24785 6.82916 3.34187 6.94514 3.34187Z" fill="#005BBF"/>
<path fill-rule="evenodd" clip-rule="evenodd" d="M6.80854 4.37299C6.81302 4.39604 6.82001 4.4175 6.82886 4.43662C6.80173 4.42626 6.76953 4.42026 6.735 4.42026C6.63835 4.42026 6.56 4.46727 6.56 4.52526C6.56 4.58325 6.63835 4.63026 6.735 4.63026C6.83165 4.63026 6.91 4.58325 6.91 4.52526C6.91 4.58325 6.98835 4.63026 7.085 4.63026C7.18165 4.63026 7.26 4.58325 7.26 4.52526C7.26 4.46727 7.18165 4.42026 7.085 4.42026C7.06067 4.42026 7.0375 4.42324 7.01645 4.42862C7.02152 4.39991 7.0213 4.367 7.01468 4.33292C6.99624 4.23805 6.93514 4.17011 6.87821 4.18117C6.82129 4.19224 6.79009 4.27812 6.80854 4.37299ZM6.91 4.52526L6.90992 4.52205L6.91008 4.52211L6.91 4.52526ZM5.77886 4.50662C5.77001 4.4875 5.76302 4.46604 5.75854 4.44299C5.74009 4.34812 5.77129 4.26224 5.82821 4.25117C5.88514 4.24011 5.94624 4.30805 5.96468 4.40292C5.9713 4.437 5.97152 4.46991 5.96645 4.49862C5.9875 4.49324 6.01067 4.49026 6.035 4.49026C6.13165 4.49026 6.21 4.53727 6.21 4.59526C6.21 4.65325 6.13165 4.70026 6.035 4.70026C5.93835 4.70026 5.86 4.65325 5.86 4.59526L5.86008 4.59211L5.85992 4.59205L5.86 4.59526C5.86 4.65325 5.78165 4.70026 5.685 4.70026C5.58835 4.70026 5.51 4.65325 5.51 4.59526C5.51 4.53727 5.58835 4.49026 5.685 4.49026C5.71953 4.49026 5.75173 4.49626 5.77886 4.50662ZM7.9712 4.57061C7.96313 4.62803 7.879 4.66368 7.78329 4.65023C7.68759 4.63678 7.61654 4.57932 7.62461 4.5219C7.63268 4.46447 7.71681 4.42882 7.81252 4.44227C7.84672 4.44708 7.87777 4.45751 7.90319 4.47154C7.89709 4.45137 7.89315 4.42915 7.89192 4.4057C7.88686 4.30919 7.92971 4.22848 7.98762 4.22545C8.04553 4.22241 8.09658 4.2982 8.10163 4.39471C8.10345 4.42938 8.09909 4.46201 8.09007 4.48973C8.11166 4.48732 8.13502 4.4876 8.15912 4.49099C8.25482 4.50444 8.32587 4.56189 8.3178 4.61932C8.30973 4.67674 8.2256 4.71239 8.12989 4.69894C8.03418 4.68549 7.96313 4.62803 7.9712 4.57061ZM7.9712 4.57061L7.97157 4.56742L7.97172 4.5675L7.9712 4.57061ZM8.63772 4.84827C8.72305 4.89364 8.8143 4.88892 8.84153 4.83772L8.84296 4.83485C8.85137 4.84375 8.86132 4.85022 8.87267 4.85369C8.92813 4.87065 8.99599 4.80946 9.02425 4.71704C9.05251 4.62461 9.03046 4.53594 8.975 4.51899C8.91954 4.50203 8.85168 4.56321 8.82342 4.65564C8.81656 4.67809 8.81266 4.70032 8.81149 4.72136C8.79241 4.69948 8.7668 4.67906 8.7363 4.66285C8.65097 4.61747 8.55972 4.6222 8.53249 4.6734C8.50527 4.7246 8.55238 4.80289 8.63772 4.84827ZM5.20301 4.86971C5.11767 4.91508 5.02642 4.91036 4.9992 4.85916C4.9987 4.85821 4.99822 4.85726 4.99776 4.85629C4.98936 4.86519 4.97941 4.87167 4.96805 4.87514C4.9126 4.89209 4.84473 4.83091 4.81648 4.73848C4.78822 4.64605 4.81027 4.55738 4.86572 4.54043C4.92118 4.52347 4.98904 4.58466 5.0173 4.67708C5.02417 4.69954 5.02806 4.72177 5.02923 4.7428C5.04831 4.72092 5.07393 4.70051 5.10442 4.68429C5.18976 4.63892 5.28101 4.64364 5.30823 4.69484C5.33545 4.74605 5.28835 4.82434 5.20301 4.86971Z" fill="#C88A02"/>
<path fill-rule="evenodd" clip-rule="evenodd" d="M6.86677 2.54785H7.0126V2.63998H7.10788V2.78581H7.0126V3.07748H7.10788V3.22331H6.77V3.07748H6.86677V2.78581H6.77V2.63998H6.86677V2.54785Z" fill="#C88A02"/>
<rect x="6.84" y="3.33997" width="0.28" height="0.91" fill="#C88A02"/>
<path d="M5.71286 3.49241L5.71164 3.5624C5.09095 3.55156 4.73492 3.64214 4.64454 3.82267C4.5511 4.00931 4.56848 4.2362 4.6994 4.50572L4.63644 4.5363C4.49675 4.24874 4.47767 3.99963 4.58194 3.79134C4.68928 3.57693 5.06591 3.48111 5.71286 3.49241Z" fill="white"/>
<path d="M5.83295 4.11309L5.79707 4.17319C5.6619 4.09249 5.59425 3.95475 5.59425 3.76494C5.59425 3.49214 5.73477 3.33217 6.04562 3.22269C6.24401 3.15282 6.51501 3.18147 6.8594 3.30633L6.83554 3.37214C6.50494 3.25228 6.24913 3.22523 6.06887 3.28872C5.78376 3.38913 5.66425 3.52518 5.66425 3.76494C5.66425 3.93151 5.72044 4.04591 5.83295 4.11309Z" fill="white"/>
<path d="M4.78759 4.39833L4.6555 4.44472C4.51845 4.05451 4.55759 3.7895 4.79177 3.67518C4.99813 3.57445 5.29887 3.53346 5.69549 3.54953L5.68982 3.68942C5.3143 3.6742 5.03492 3.71228 4.85319 3.80099C4.69928 3.87612 4.67113 4.06674 4.78759 4.39833Z" fill="#C88A02"/>
<path d="M6.3308 3.39916C6.01071 3.39916 5.87927 3.47711 5.80417 3.70729C5.75632 3.85398 5.80273 3.97918 5.95322 4.09604L5.86736 4.20662C5.67252 4.05532 5.60382 3.87002 5.67108 3.66387C5.76678 3.37053 5.95456 3.25916 6.3308 3.25916C6.5774 3.25916 6.76949 3.32394 6.90325 3.45579L6.92411 3.47635V4.15133H6.78411V3.53619C6.67964 3.44546 6.52959 3.39916 6.3308 3.39916Z" fill="#C88A02"/>
<path d="M8.15563 3.56235L8.15685 3.63234C8.77754 3.62151 9.13357 3.71209 9.22395 3.89262C9.31738 4.07926 9.30001 4.30615 9.16908 4.57566L9.23205 4.60625C9.37174 4.31869 9.39081 4.06957 9.28654 3.86128C9.17921 3.64688 8.80257 3.55106 8.15563 3.56235Z" fill="white"/>
<path d="M7.93644 4.12762L7.97233 4.18772C8.1075 4.10701 8.17515 3.96928 8.17515 3.77946C8.17515 3.50666 8.03462 3.34669 7.72377 3.23722C7.52539 3.16735 7.25438 3.196 6.90999 3.32086L6.93385 3.38667C7.26446 3.2668 7.52027 3.23976 7.70052 3.30324C7.98564 3.40366 8.10515 3.5397 8.10515 3.77946C8.10515 3.94603 8.04896 4.06044 7.93644 4.12762Z" fill="white"/>
<path d="M9.12452 4.46834L9.25661 4.51473C9.39366 4.12451 9.35452 3.8595 9.12034 3.74519C8.91398 3.64446 8.61324 3.60346 8.21662 3.61954L8.22229 3.75942C8.59781 3.74421 8.87719 3.78229 9.05892 3.871C9.21283 3.94613 9.24098 4.13674 9.12452 4.46834Z" fill="#C88A02"/>
<path d="M7.5733 3.40996C7.89339 3.40996 8.02483 3.48792 8.09993 3.7181C8.14778 3.86478 8.10137 3.98998 7.95088 4.10685L8.03674 4.21742C8.23158 4.06612 8.30028 3.88082 8.23302 3.67467C8.13732 3.38133 7.94953 3.26996 7.5733 3.26996C7.3267 3.26996 7.13461 3.33474 7.00085 3.4666L6.97999 3.48716V4.16214H7.11999V3.54699C7.22445 3.45626 7.37451 3.40996 7.5733 3.40996Z" fill="#C88A02"/>
<path opacity="0.3" fill-rule="evenodd" clip-rule="evenodd" d="M4.67 5.78998H9.22V9.878C9.22 9.878 8.88201 11.25 6.945 11.25C5.00798 11.25 4.67 9.84182 4.67 9.84182V5.78998Z" fill="#E1E5E8"/>
<mask id="mask4_1300_27330" style="mask-type:luminance" maskUnits="userSpaceOnUse" x="4" y="5" width="6" height="7">
<path fill-rule="evenodd" clip-rule="evenodd" d="M4.67 5.78998H9.22V9.878C9.22 9.878 8.88201 11.25 6.945 11.25C5.00798 11.25 4.67 9.84182 4.67 9.84182V5.78998Z" fill="white"/>
</mask>
<g mask="url(#mask4_1300_27330)">
<rect x="4.67" y="8.31" width="2.31" height="2.73" fill="#FFC034"/>
<rect x="4.95" y="8.44995" width="0.28" height="2.59" fill="#AD1619"/>
<rect x="5.93" y="8.44995" width="0.28" height="2.59" fill="#AD1619"/>
<rect x="5.43999" y="8.44995" width="0.28" height="2.59" fill="#AD1619"/>
<rect x="6.42" y="8.44995" width="0.28" height="2.59" fill="#AD1619"/>
<rect x="4.67" y="5.71997" width="2.31" height="2.66" fill="#AD1619"/>
<rect x="6.91" y="8.23999" width="2.31" height="2.66" fill="#AD1619"/>
<rect x="6.91" y="5.78998" width="2.45" height="2.59" fill="#F1F9FF"/>
<path fill-rule="evenodd" clip-rule="evenodd" d="M5.65 6H5.86V6.58074H6V6.29037H6.21V6.58074H6.42V6.9437H6.21V7.59704H6.42V7.96H5.16V7.59704H5.37V6.9437H5.16V6.58074H5.3V6.29037H5.51V6.58074H5.65V6Z" fill="#C88A02"/>
<path d="M8.11176 6.12184L8.25512 5.96838L8.55608 6.24952L8.41272 6.40298L8.11176 6.12184Z" fill="#C88A02"/>
<path fill-rule="evenodd" clip-rule="evenodd" d="M8.975 10.0875V8.55499H7.225V10.0747L7.22778 10.0865C7.31636 10.464 7.61805 10.655 8.1 10.655C8.58149 10.655 8.88313 10.4689 8.97208 10.0997L8.975 10.0875ZM8.1 10.445C7.71331 10.445 7.50213 10.3147 7.435 10.0499V8.76499H8.765V10.0621C8.69804 10.3183 8.48684 10.445 8.1 10.445Z" fill="#FFC034"/>
<path fill-rule="evenodd" clip-rule="evenodd" d="M8.17225 8.68304H8.02641V9.37783L7.45152 8.75258L7.34846 8.84733L7.86837 9.41279H7.39731V9.62279H7.75917H7.87983L7.34846 10.2007L7.45152 10.2955L8.02641 9.67021V10.4824H8.17225V9.74329L8.67994 10.2955L8.783 10.2007L8.25164 9.62279H8.84474V9.41279H8.26309L8.783 8.84733L8.67994 8.75258L8.17225 9.30475V8.68304Z" fill="#FFC034"/>
<path fill-rule="evenodd" clip-rule="evenodd" d="M8.4267 10.9017C8.4267 10.9017 6.94408 11.0182 6.94408 10.062C6.94408 10.062 6.92994 10.9017 5.38181 10.9017V11.6566H8.4267V10.9017Z" fill="#F1F9FF"/>
<path fill-rule="evenodd" clip-rule="evenodd" d="M6.945 8.87C7.23495 8.87 7.47 8.61928 7.47 8.31C7.47 8.00072 7.23495 7.75 6.945 7.75C6.65505 7.75 6.42 8.00072 6.42 8.31C6.42 8.61928 6.65505 8.87 6.945 8.87Z" fill="#005BBF" stroke="#AD1619" stroke-width="0.729167"/>
</g>
</g>
</g>
</svg>
