<svg width="20" height="20" viewBox="0 0 20 20" fill="none" xmlns="http://www.w3.org/2000/svg">
<rect width="20" height="20" rx="10" fill="#326BFF"/>
<path d="M11.7164 8.35298L11.2341 9.41193H4.63681L5.02956 8.35298H11.7164ZM10.7966 10.4062L10.2845 11.4801H4.63681L5.02956 10.4062H10.7966ZM12.9692 5.64347L12.2732 7.125C12.1141 6.99905 11.9334 6.87642 11.7313 6.7571C11.5291 6.63778 11.3054 6.53835 11.0601 6.45881C10.8148 6.37926 10.5464 6.33949 10.2547 6.33949C9.76086 6.33949 9.32502 6.47041 8.94718 6.73224C8.56934 6.99077 8.2727 7.38518 8.05726 7.91548C7.84514 8.44247 7.73908 9.11032 7.73908 9.91903C7.73908 10.7277 7.84514 11.3956 8.05726 11.9226C8.2727 12.4496 8.56934 12.8407 8.94718 13.0959C9.32502 13.3511 9.76086 13.4787 10.2547 13.4787C10.5464 13.4787 10.8148 13.4406 11.0601 13.3643C11.3054 13.2881 11.5258 13.192 11.7213 13.076C11.9202 12.96 12.0909 12.844 12.2334 12.728L12.9394 14.2095C12.5847 14.5178 12.1754 14.7498 11.7114 14.9055C11.2507 15.0613 10.7651 15.1392 10.2547 15.1392C9.40622 15.1392 8.65385 14.9321 7.9976 14.5178C7.34467 14.1001 6.83259 13.5019 6.46138 12.723C6.09017 11.9408 5.90456 11.0062 5.90456 9.91903C5.90456 8.8286 6.09017 7.89228 6.46138 7.11008C6.83259 6.32789 7.34467 5.72798 7.9976 5.31037C8.65385 4.88944 9.40622 4.67898 10.2547 4.67898C10.785 4.67898 11.2772 4.76349 11.7313 4.93253C12.1887 5.09825 12.6013 5.33523 12.9692 5.64347Z" fill="white"/>
</svg>
