<svg width="20" height="20" viewBox="0 0 20 20" fill="none" xmlns="http://www.w3.org/2000/svg">
<rect width="20" height="20" rx="10" fill="#326BFF"/>
<path d="M13.536 15H6.35707V13.4538H13.536V15ZM11.5076 10.978H6.32227V9.47159H11.5076V10.978ZM9.1511 7.76633L9.31019 12.027C9.33008 12.4678 9.25716 12.849 9.09144 13.1705C8.92904 13.4886 8.64234 13.7505 8.23136 13.956L6.91886 13.4538C7.08126 13.4306 7.20555 13.3461 7.29173 13.2003C7.3779 13.0545 7.4359 12.8821 7.46573 12.6832C7.49556 12.4811 7.50716 12.2888 7.50053 12.1065L7.35139 7.76633C7.32818 7.09351 7.45579 6.52841 7.7342 6.07102C8.01592 5.61032 8.39873 5.26397 8.88264 5.03196C9.36654 4.79664 9.90181 4.67898 10.4885 4.67898C10.9922 4.67898 11.443 4.75521 11.8407 4.90767C12.2418 5.06013 12.5782 5.27225 12.85 5.54403C13.1251 5.81581 13.3256 6.13068 13.4515 6.48864C13.5808 6.84659 13.6222 7.23272 13.5758 7.64702L11.8507 7.50284C11.8739 7.20123 11.8242 6.95431 11.7015 6.76207C11.5822 6.56652 11.4165 6.42401 11.2044 6.33452C10.9956 6.24171 10.7718 6.19531 10.5332 6.19531C10.2879 6.19531 10.0592 6.25166 9.84712 6.36435C9.63832 6.47704 9.46928 6.64938 9.34002 6.88139C9.21407 7.1134 9.1511 7.40838 9.1511 7.76633Z" fill="white"/>
</svg>
