<svg width="20" height="20" viewBox="0 0 20 20" fill="none" xmlns="http://www.w3.org/2000/svg">
<g clip-path="url(#clip0_1300_23771)">
<mask id="mask0_1300_23771" style="mask-type:luminance" maskUnits="userSpaceOnUse" x="-3" y="0" width="27" height="20">
<rect x="-3" width="26.6667" height="20" fill="white"/>
</mask>
<g mask="url(#mask0_1300_23771)">
<path fill-rule="evenodd" clip-rule="evenodd" d="M-3 0V20H23.6667V0H-3Z" fill="#2E42A5"/>
<mask id="mask1_1300_23771" style="mask-type:luminance" maskUnits="userSpaceOnUse" x="-3" y="0" width="27" height="20">
<path fill-rule="evenodd" clip-rule="evenodd" d="M-3 0V20H23.6667V0H-3Z" fill="white"/>
</mask>
<g mask="url(#mask1_1300_23771)">
<rect x="-3" width="15" height="11.6667" fill="#2B409A"/>
<mask id="mask2_1300_23771" style="mask-type:luminance" maskUnits="userSpaceOnUse" x="-3" y="0" width="15" height="12">
<rect x="-3" width="15" height="11.6667" fill="white"/>
</mask>
<g mask="url(#mask2_1300_23771)">
<path d="M-4.67023 10.8332L-1.36943 12.2809L12.0749 1.57399L13.816 -0.577291L10.2863 -1.06114L4.80264 3.55276L0.388894 6.66146L-4.67023 10.8332Z" fill="#F7FCFF"/>
<path d="M-4.21835 11.8475L-2.53675 12.6876L13.1908 -0.777141H10.8296L-4.21835 11.8475Z" fill="#F50100"/>
<path d="M13.6702 10.8332L10.3694 12.2809L-3.0749 1.57399L-4.81599 -0.577291L-1.28627 -1.06114L4.19736 3.55276L8.61111 6.66146L13.6702 10.8332Z" fill="#F7FCFF"/>
<path d="M13.5576 11.5611L11.876 12.4012L5.17905 6.63628L3.19355 5.99218L-4.98353 -0.569935H-2.62237L5.55012 5.83642L7.72091 6.60877L13.5576 11.5611Z" fill="#F50100"/>
<mask id="path-12-outside-1_1300_23771" maskUnits="userSpaceOnUse" x="-5" y="-2" width="19" height="15" fill="black">
<rect fill="white" x="-5" y="-2" width="19" height="15"/>
<path fill-rule="evenodd" clip-rule="evenodd" d="M5.32043 0H3.65376V5H-3V6.66667H3.65376V11.6667H5.32043V6.66667H12V5H5.32043V0Z"/>
</mask>
<path fill-rule="evenodd" clip-rule="evenodd" d="M5.32043 0H3.65376V5H-3V6.66667H3.65376V11.6667H5.32043V6.66667H12V5H5.32043V0Z" fill="#F50100"/>
<path d="M3.65376 0V-1.25H2.40376V0H3.65376ZM5.32043 0H6.57043V-1.25H5.32043V0ZM3.65376 5V6.25H4.90376V5H3.65376ZM-3 5V3.75H-4.25V5H-3ZM-3 6.66667H-4.25V7.91667H-3V6.66667ZM3.65376 6.66667H4.90376V5.41667H3.65376V6.66667ZM3.65376 11.6667H2.40376V12.9167H3.65376V11.6667ZM5.32043 11.6667V12.9167H6.57043V11.6667H5.32043ZM5.32043 6.66667V5.41667H4.07043V6.66667H5.32043ZM12 6.66667V7.91667H13.25V6.66667H12ZM12 5H13.25V3.75H12V5ZM5.32043 5H4.07043V6.25H5.32043V5ZM3.65376 1.25H5.32043V-1.25H3.65376V1.25ZM4.90376 5V0H2.40376V5H4.90376ZM-3 6.25H3.65376V3.75H-3V6.25ZM-1.75 6.66667V5H-4.25V6.66667H-1.75ZM3.65376 5.41667H-3V7.91667H3.65376V5.41667ZM4.90376 11.6667V6.66667H2.40376V11.6667H4.90376ZM5.32043 10.4167H3.65376V12.9167H5.32043V10.4167ZM4.07043 6.66667V11.6667H6.57043V6.66667H4.07043ZM12 5.41667H5.32043V7.91667H12V5.41667ZM10.75 5V6.66667H13.25V5H10.75ZM5.32043 6.25H12V3.75H5.32043V6.25ZM4.07043 0V5H6.57043V0H4.07043Z" fill="#F7FCFF" mask="url(#path-12-outside-1_1300_23771)"/>
</g>
<path fill-rule="evenodd" clip-rule="evenodd" d="M17.0833 6.22552L16.8669 7.48721L18 6.89152L19.133 7.48721L18.9166 6.22552L19.8333 5.33199L18.5665 5.14792L18 4L17.4334 5.14792L16.1666 5.33199L17.0833 6.22552ZM13.75 10.8922L13.5336 12.1539L14.6666 11.5582L15.7997 12.1539L15.5833 10.8922L16.5 9.99867L15.2332 9.81459L14.6666 8.66667L14.1001 9.81459L12.8333 9.99867L13.75 10.8922ZM16.5221 16.2196L16.2415 17.8559L17.711 17.0833L19.1804 17.8559L18.8998 16.2196L20.0886 15.0608L18.4457 14.8221L17.711 13.3333L16.9762 14.8221L15.3333 15.0608L16.5221 16.2196ZM19.3661 12.15L19.5823 10.8897L18.6666 9.99719L19.932 9.81331L20.4979 8.66667L21.0638 9.81331L22.3292 9.99719L21.4136 10.8897L21.6297 12.15L20.4979 11.555L19.3661 12.15Z" fill="#F50100"/>
<path d="M16.8669 7.48721L16.7026 7.45903L16.6456 7.79188L16.9445 7.63473L16.8669 7.48721ZM17.0833 6.22552L17.2476 6.2537L17.2624 6.16734L17.1996 6.10618L17.0833 6.22552ZM18 6.89152L18.0775 6.744L18 6.70323L17.9224 6.744L18 6.89152ZM19.133 7.48721L19.0555 7.63473L19.3544 7.79188L19.2973 7.45903L19.133 7.48721ZM18.9166 6.22552L18.8003 6.10618L18.7376 6.16734L18.7524 6.2537L18.9166 6.22552ZM19.8333 5.33199L19.9496 5.45134L20.1915 5.21562L19.8573 5.16706L19.8333 5.33199ZM18.5665 5.14792L18.4171 5.22168L18.4558 5.30025L18.5425 5.31285L18.5665 5.14792ZM18 4L18.1494 3.92624L18 3.62341L17.8505 3.92624L18 4ZM17.4334 5.14792L17.4574 5.31285L17.5441 5.30025L17.5829 5.22168L17.4334 5.14792ZM16.1666 5.33199L16.1427 5.16706L15.8085 5.21562L16.0503 5.45134L16.1666 5.33199ZM13.5336 12.1539L13.3693 12.1257L13.3122 12.4585L13.6111 12.3014L13.5336 12.1539ZM13.75 10.8922L13.9142 10.9204L13.9291 10.834L13.8663 10.7728L13.75 10.8922ZM14.6666 11.5582L14.7442 11.4107L14.6666 11.3699L14.5891 11.4107L14.6666 11.5582ZM15.7997 12.1539L15.7222 12.3014L16.0211 12.4585L15.964 12.1257L15.7997 12.1539ZM15.5833 10.8922L15.467 10.7728L15.4042 10.834L15.419 10.9204L15.5833 10.8922ZM16.5 9.99867L16.6163 10.118L16.8581 9.88229L16.5239 9.83373L16.5 9.99867ZM15.2332 9.81459L15.0837 9.88835L15.1225 9.96692L15.2092 9.97952L15.2332 9.81459ZM14.6666 8.66667L14.8161 8.59291L14.6666 8.29008L14.5172 8.59291L14.6666 8.66667ZM14.1001 9.81459L14.1241 9.97952L14.2108 9.96692L14.2496 9.88835L14.1001 9.81459ZM12.8333 9.99867L12.8093 9.83373L12.4752 9.88229L12.717 10.118L12.8333 9.99867ZM16.2415 17.8559L16.0772 17.8277L16.0201 18.1606L16.319 18.0034L16.2415 17.8559ZM16.5221 16.2196L16.6864 16.2478L16.7012 16.1614L16.6385 16.1003L16.5221 16.2196ZM17.711 17.0833L17.7885 16.9358L17.711 16.895L17.6334 16.9358L17.711 17.0833ZM19.1804 17.8559L19.1029 18.0034L19.4018 18.1606L19.3447 17.8277L19.1804 17.8559ZM18.8998 16.2196L18.7834 16.1003L18.7207 16.1614L18.7355 16.2478L18.8998 16.2196ZM20.0886 15.0608L20.2049 15.1801L20.4468 14.9444L20.1126 14.8959L20.0886 15.0608ZM18.4457 14.8221L18.2962 14.8958L18.335 14.9744L18.4217 14.987L18.4457 14.8221ZM17.711 13.3333L17.8604 13.2596L17.711 12.9568L17.5615 13.2596L17.711 13.3333ZM16.9762 14.8221L17.0002 14.987L17.0869 14.9744L17.1257 14.8958L16.9762 14.8221ZM15.3333 15.0608L15.3093 14.8959L14.9752 14.9444L15.217 15.1801L15.3333 15.0608ZM19.5823 10.8897L19.7466 10.9179L19.7614 10.8315L19.6986 10.7704L19.5823 10.8897ZM19.3661 12.15L19.2019 12.1218L19.1448 12.4547L19.4437 12.2975L19.3661 12.15ZM18.6666 9.99719L18.6427 9.83225L18.3085 9.88081L18.5503 10.1165L18.6666 9.99719ZM19.932 9.81331L19.956 9.97825L20.0427 9.96565L20.0815 9.88708L19.932 9.81331ZM20.4979 8.66667L20.6474 8.59291L20.4979 8.29008L20.3485 8.59291L20.4979 8.66667ZM21.0638 9.81331L20.9144 9.88708L20.9532 9.96565L21.0399 9.97825L21.0638 9.81331ZM22.3292 9.99719L22.4456 10.1165L22.6874 9.88081L22.3532 9.83225L22.3292 9.99719ZM21.4136 10.8897L21.2973 10.7704L21.2345 10.8315L21.2493 10.9179L21.4136 10.8897ZM21.6297 12.15L21.5522 12.2975L21.8511 12.4547L21.794 12.1218L21.6297 12.15ZM20.4979 11.555L20.5755 11.4075L20.4979 11.3667L20.4204 11.4075L20.4979 11.555ZM17.0312 7.51538L17.2476 6.2537L16.919 6.19735L16.7026 7.45903L17.0312 7.51538ZM17.9224 6.744L16.7894 7.33969L16.9445 7.63473L18.0775 7.03904L17.9224 6.744ZM19.2106 7.33969L18.0775 6.744L17.9224 7.03904L19.0555 7.63473L19.2106 7.33969ZM18.7524 6.2537L18.9688 7.51538L19.2973 7.45903L19.0809 6.19735L18.7524 6.2537ZM19.717 5.21265L18.8003 6.10618L19.033 6.34487L19.9496 5.45134L19.717 5.21265ZM18.5425 5.31285L19.8093 5.49693L19.8573 5.16706L18.5905 4.98298L18.5425 5.31285ZM17.8505 4.07376L18.4171 5.22168L18.716 5.07416L18.1494 3.92624L17.8505 4.07376ZM17.5829 5.22168L18.1494 4.07376L17.8505 3.92624L17.284 5.07416L17.5829 5.22168ZM16.1906 5.49693L17.4574 5.31285L17.4095 4.98298L16.1427 5.16706L16.1906 5.49693ZM17.1996 6.10618L16.283 5.21265L16.0503 5.45134L16.967 6.34487L17.1996 6.10618ZM13.6979 12.1821L13.9142 10.9204L13.5857 10.864L13.3693 12.1257L13.6979 12.1821ZM14.5891 11.4107L13.456 12.0064L13.6111 12.3014L14.7442 11.7057L14.5891 11.4107ZM15.8773 12.0064L14.7442 11.4107L14.5891 11.7057L15.7222 12.3014L15.8773 12.0064ZM15.419 10.9204L15.6354 12.1821L15.964 12.1257L15.7476 10.864L15.419 10.9204ZM16.3836 9.87932L15.467 10.7728L15.6996 11.0115L16.6163 10.118L16.3836 9.87932ZM15.2092 9.97952L16.476 10.1636L16.5239 9.83373L15.2571 9.64965L15.2092 9.97952ZM14.5172 8.74043L15.0837 9.88835L15.3826 9.74083L14.8161 8.59291L14.5172 8.74043ZM14.2496 9.88835L14.8161 8.74043L14.5172 8.59291L13.9507 9.74083L14.2496 9.88835ZM12.8573 10.1636L14.1241 9.97952L14.0761 9.64965L12.8093 9.83373L12.8573 10.1636ZM13.8663 10.7728L12.9496 9.87932L12.717 10.118L13.6336 11.0115L13.8663 10.7728ZM16.4058 17.8841L16.6864 16.2478L16.3579 16.1914L16.0772 17.8277L16.4058 17.8841ZM17.6334 16.9358L16.1639 17.7084L16.319 18.0034L17.7885 17.2309L17.6334 16.9358ZM19.258 17.7084L17.7885 16.9358L17.6334 17.2309L19.1029 18.0034L19.258 17.7084ZM18.7355 16.2478L19.0161 17.8841L19.3447 17.8277L19.064 16.1914L18.7355 16.2478ZM19.9723 14.9415L18.7834 16.1003L19.0161 16.339L20.2049 15.1801L19.9723 14.9415ZM18.4217 14.987L20.0646 15.2257L20.1126 14.8959L18.4697 14.6571L18.4217 14.987ZM17.5615 13.4071L18.2962 14.8958L18.5951 14.7483L17.8604 13.2596L17.5615 13.4071ZM17.1257 14.8958L17.8604 13.4071L17.5615 13.2596L16.8268 14.7483L17.1257 14.8958ZM15.3573 15.2257L17.0002 14.987L16.9523 14.6571L15.3093 14.8959L15.3573 15.2257ZM16.6385 16.1003L15.4496 14.9415L15.217 15.1801L16.4058 16.339L16.6385 16.1003ZM19.418 10.8615L19.2019 12.1218L19.5304 12.1782L19.7466 10.9179L19.418 10.8615ZM18.5503 10.1165L19.466 11.0091L19.6986 10.7704L18.783 9.87784L18.5503 10.1165ZM19.9081 9.64838L18.6427 9.83225L18.6906 10.1621L19.956 9.97825L19.9081 9.64838ZM20.3485 8.59291L19.7826 9.73955L20.0815 9.88708L20.6474 8.74043L20.3485 8.59291ZM21.2133 9.73955L20.6474 8.59291L20.3485 8.74043L20.9144 9.88708L21.2133 9.73955ZM22.3532 9.83225L21.0878 9.64838L21.0399 9.97825L22.3053 10.1621L22.3532 9.83225ZM21.5299 11.0091L22.4456 10.1165L22.2129 9.87784L21.2973 10.7704L21.5299 11.0091ZM21.794 12.1218L21.5779 10.8615L21.2493 10.9179L21.4655 12.1782L21.794 12.1218ZM20.4204 11.7025L21.5522 12.2975L21.7073 12.0025L20.5755 11.4075L20.4204 11.7025ZM19.4437 12.2975L20.5755 11.7025L20.4204 11.4075L19.2886 12.0025L19.4437 12.2975Z" fill="#F7FCFF"/>
</g>
</g>
</g>
<rect x="0.5" y="0.5" width="19" height="19" rx="9.5" stroke="#001855" stroke-opacity="0.1"/>
<defs>
<clipPath id="clip0_1300_23771">
<rect width="20" height="20" rx="10" fill="white"/>
</clipPath>
</defs>
</svg>
