<svg width="20" height="20" viewBox="0 0 20 20" fill="none" xmlns="http://www.w3.org/2000/svg">
<rect width="20" height="20" rx="10" fill="#326BFF"/>
<path d="M9.64018 16.2727V3.54545H10.4555V16.2727H9.64018ZM11.9917 7.61719C11.9453 7.183 11.7498 6.84493 11.4051 6.60298C11.0637 6.36103 10.6196 6.24006 10.0727 6.24006C9.68824 6.24006 9.35846 6.29806 9.08336 6.41406C8.80827 6.53007 8.5978 6.6875 8.45197 6.88636C8.30614 7.08523 8.23156 7.31226 8.22825 7.56747C8.22825 7.77959 8.27631 7.96354 8.37243 8.11932C8.47186 8.27509 8.60609 8.40767 8.77512 8.51705C8.94416 8.62311 9.13142 8.71259 9.33691 8.78551C9.54241 8.85843 9.74956 8.91974 9.95836 8.96946L10.9129 9.2081C11.2974 9.29758 11.6669 9.41856 12.0216 9.57102C12.3795 9.72348 12.6994 9.91572 12.9811 10.1477C13.2661 10.3797 13.4915 10.6598 13.6572 10.9879C13.8229 11.3161 13.9058 11.7005 13.9058 12.1413C13.9058 12.7379 13.7533 13.2633 13.4484 13.7173C13.1435 14.1681 12.7027 14.5211 12.126 14.7763C11.5526 15.0282 10.8582 15.1541 10.0429 15.1541C9.25074 15.1541 8.563 15.0315 7.97967 14.7862C7.39965 14.541 6.94558 14.183 6.61745 13.7124C6.29264 13.2417 6.11698 12.6683 6.09047 11.9922H7.9051C7.93161 12.3468 8.04099 12.6418 8.23322 12.8771C8.42546 13.1125 8.67569 13.2881 8.98393 13.4041C9.29548 13.5201 9.6435 13.5781 10.028 13.5781C10.429 13.5781 10.7803 13.5185 11.0819 13.3991C11.3869 13.2765 11.6255 13.1075 11.7979 12.892C11.9702 12.6733 12.058 12.4181 12.0613 12.1264C12.058 11.8613 11.9801 11.6425 11.8277 11.4702C11.6752 11.2945 11.4614 11.1487 11.1863 11.0327C10.9146 10.9134 10.5964 10.8073 10.2318 10.7145L9.07342 10.4162C8.23488 10.2008 7.572 9.87429 7.08478 9.43679C6.60088 8.99598 6.35893 8.41098 6.35893 7.68182C6.35893 7.08191 6.52134 6.55658 6.84615 6.10582C7.17427 5.65507 7.62006 5.3054 8.18351 5.05682C8.74695 4.80492 9.38497 4.67898 10.0976 4.67898C10.8201 4.67898 11.4532 4.80492 11.9967 5.05682C12.5436 5.3054 12.9728 5.65175 13.2844 6.09588C13.5959 6.53669 13.7567 7.0438 13.7666 7.61719H11.9917Z" fill="white"/>
</svg>
