<svg width="22" height="20" viewBox="0 0 22 20" fill="none" xmlns="http://www.w3.org/2000/svg">
<path fill-rule="evenodd" clip-rule="evenodd" d="M0.5 1.5C0.5 0.947715 0.947715 0.5 1.5 0.5H20.5C21.0523 0.5 21.5 0.947715 21.5 1.5V2.5C21.5 3.05228 21.0523 3.5 20.5 3.5H1.5C0.947715 3.5 0.5 3.05228 0.5 2.5V1.5Z" fill="#AEB7CD"/>
<path fill-rule="evenodd" clip-rule="evenodd" d="M0.5 9.5C0.5 8.94772 0.947715 8.5 1.5 8.5H14.5C15.0523 8.5 15.5 8.94772 15.5 9.5V10.5C15.5 11.0523 15.0523 11.5 14.5 11.5H1.5C0.947715 11.5 0.5 11.0523 0.5 10.5V9.5Z" fill="#AEB7CD"/>
<path fill-rule="evenodd" clip-rule="evenodd" d="M0.5 17.5C0.5 16.9477 0.947715 16.5 1.5 16.5H20.5C21.0523 16.5 21.5 16.9477 21.5 17.5V18.5C21.5 19.0523 21.0523 19.5 20.5 19.5H1.5C0.947715 19.5 0.5 19.0523 0.5 18.5V17.5Z" fill="#AEB7CD"/>
</svg>
