<svg width="20" height="20" viewBox="0 0 20 20" fill="none" xmlns="http://www.w3.org/2000/svg">
<path d="M7.58242 10.0001L0.690728 16.8918C0.309261 17.2733 0.309261 17.8917 0.690728 18.2732L1.72679 19.3093C2.10825 19.6907 2.72673 19.6907 3.1082 19.3093L9.99989 12.4176L16.8918 19.3095C17.2733 19.6909 17.8917 19.6909 18.2732 19.3095L19.3093 18.2734C19.6907 17.8919 19.6907 17.2735 19.3093 16.892L12.4174 10.0001L19.3093 3.10818C19.6908 2.72671 19.6908 2.10823 19.3093 1.72676L18.2732 0.690705C17.8918 0.309239 17.2733 0.30924 16.8918 0.690706L9.99989 7.58263L3.10818 0.690923C2.72671 0.309457 2.10823 0.309456 1.72677 0.690922L0.690707 1.72698C0.30924 2.10845 0.309241 2.72693 0.690708 3.10839L7.58242 10.0001Z" fill="#AEB7CD"/>
</svg>
