<svg width="20" height="20" viewBox="0 0 20 20" fill="none" xmlns="http://www.w3.org/2000/svg">
<path d="M10 13.0938C10.5 13.0938 11.0312 12.9062 11.4688 12.5625L18 7.5V14.5C18 15.3438 17.3125 16 16.5 16H3.5C2.65625 16 2 15.3438 2 14.5V7.5L8.5 12.5625C8.9375 12.9062 9.46875 13.0938 10 13.0938ZM2.5 6.5625C2.1875 6.3125 2 5.9375 2 5.5C2 4.6875 2.65625 4 3.5 4H16.5C17.3125 4 18 4.6875 18 5.5C18 5.9375 17.7812 6.3125 17.4688 6.5625L10.8438 11.7188C10.3438 12.0938 9.625 12.0938 9.125 11.7188L2.5 6.5625Z" fill="#AEB7CD"/>
</svg>
