<svg width="20" height="20" viewBox="0 0 20 20" fill="none" xmlns="http://www.w3.org/2000/svg">
<path d="M17.9786 14.0673L17.2281 17.2197C17.1343 17.6879 16.7591 18 16.29 18C8.41019 18 2 11.5704 2 3.70508C2 3.23691 2.28142 2.86237 2.75046 2.76873L5.87738 2.01966C6.34642 1.92602 6.81546 2.17571 7.00307 2.58147L8.47273 5.98353C8.62907 6.38928 8.53526 6.85746 8.1913 7.10715L6.50277 8.51167C7.56592 10.6653 9.31699 12.4131 11.5058 13.4743L12.8817 11.7889C13.1318 11.4456 13.6009 11.3519 14.0074 11.508L17.4157 12.9749C17.8535 13.1622 18.0724 13.6304 17.9786 14.0673Z" fill="#AEB7CD"/>
</svg>
