<svg width="20" height="20" viewBox="0 0 20 20" fill="none" xmlns="http://www.w3.org/2000/svg">
<rect width="20" height="20" rx="10" fill="#326BFF"/>
<path fill-rule="evenodd" clip-rule="evenodd" d="M8.55511 5.12991C8.40667 5.17678 8.16056 5.27835 8.00821 5.35648C7.85977 5.43851 7.62539 5.60649 7.49257 5.7354C7.3246 5.89946 7.21522 6.05181 7.12537 6.24323C7.03162 6.44245 7.00037 6.57527 7.00037 6.73152C6.99646 6.87215 7.02381 7.00106 7.0785 7.10263C7.12537 7.19638 7.22303 7.30186 7.3285 7.36436C7.42226 7.42295 7.57851 7.48546 7.67617 7.49717C7.80899 7.51671 7.89102 7.50499 8.00431 7.4503C8.10197 7.40342 8.21916 7.29014 8.32463 7.14169C8.41448 7.01278 8.53948 6.86043 8.60198 6.80184C8.66058 6.74324 8.80121 6.6573 8.90668 6.61043C9.04341 6.54792 9.20357 6.51667 9.43404 6.50495C9.68015 6.49323 9.8325 6.50886 10.02 6.55964C10.1606 6.59871 10.3364 6.67683 10.4106 6.73152C10.4849 6.78621 10.5903 6.91903 10.6411 7.0245C10.7192 7.18857 10.731 7.25889 10.7153 7.4542C10.7036 7.58312 10.6646 7.75109 10.6255 7.82531C10.5864 7.89953 10.5005 8.03235 10.4341 8.11438C10.3677 8.20032 10.102 8.43861 9.84421 8.64565C9.58639 8.85269 9.29732 9.11832 9.20357 9.23552C9.11372 9.35271 8.99262 9.53631 8.93793 9.64178C8.88324 9.75116 8.80512 9.96992 8.76605 10.1301C8.71527 10.3332 8.69183 10.5559 8.69183 10.8528C8.69183 11.1965 8.70746 11.3137 8.76996 11.4504C8.82074 11.552 8.89496 11.6379 8.977 11.6809C9.06294 11.7239 9.19966 11.7473 9.41451 11.7473C9.6528 11.7473 9.76218 11.7278 9.88328 11.6692C9.97703 11.6223 10.0669 11.5364 10.1059 11.4543C10.1567 11.3645 10.1763 11.2317 10.1763 11.0285C10.1763 10.8684 10.2036 10.6301 10.2349 10.5012C10.27 10.3723 10.356 10.177 10.4263 10.0715C10.4966 9.9582 10.7505 9.70819 11.0161 9.48552C11.27 9.27067 11.5669 8.98551 11.6763 8.85269C11.7857 8.71987 11.9341 8.52065 12.0005 8.40346C12.0709 8.29017 12.1724 8.09095 12.2232 7.96203C12.2779 7.83312 12.3404 7.60265 12.3599 7.4542C12.3873 7.27451 12.3873 7.09091 12.3638 6.91512C12.3404 6.77059 12.2935 6.57136 12.2545 6.4698C12.2154 6.36432 12.1294 6.20416 12.063 6.1065C11.9966 6.00884 11.8638 5.85259 11.7622 5.75493C11.6646 5.65727 11.4732 5.51273 11.3365 5.4307C11.2036 5.35257 10.9614 5.24319 10.8013 5.1885C10.6411 5.13772 10.4028 5.07522 10.2739 5.05569C10.145 5.03225 9.92625 5.00881 9.78562 5.001C9.64499 4.99709 9.37154 5.0049 9.18013 5.02053C8.98872 5.03615 8.70355 5.08694 8.55511 5.12991ZM8.82855 12.8724C8.74261 12.9349 8.63714 13.0442 8.59027 13.1106C8.5473 13.181 8.4887 13.2982 8.46136 13.3724C8.43792 13.4466 8.41839 13.5989 8.41839 13.7044C8.41839 13.8138 8.45354 13.9779 8.50042 14.0755C8.54339 14.1732 8.63714 14.3099 8.70355 14.3802C8.77387 14.4544 8.89106 14.5443 8.96528 14.5834C9.0395 14.6224 9.18013 14.6654 9.27779 14.681C9.39889 14.7005 9.5278 14.6888 9.68796 14.642C9.87547 14.5912 9.96141 14.5365 10.1177 14.3763C10.2349 14.2552 10.3325 14.1107 10.3638 14.0169C10.3872 13.931 10.4106 13.763 10.4106 13.6458C10.4106 13.5247 10.3794 13.3646 10.3403 13.2747C10.3013 13.1888 10.2075 13.056 10.1333 12.9817C10.0591 12.9075 9.93016 12.8099 9.84421 12.7708C9.75437 12.7278 9.58639 12.6888 9.45358 12.6809C9.32467 12.677 9.16841 12.6927 9.102 12.7161C9.03559 12.7395 8.9145 12.8099 8.82855 12.8724Z" fill="white"/>
</svg>
