<svg width="17" height="16" viewBox="0 0 17 16" fill="none" xmlns="http://www.w3.org/2000/svg">
<path d="M7.625 5.11237V12.5C7.625 12.7761 7.84886 13 8.125 13H8.875C9.15114 13 9.375 12.7761 9.375 12.5V5.11238L11.7777 7.5151C11.973 7.71036 12.2896 7.71036 12.4848 7.5151L13.0152 6.98477C13.2104 6.78951 13.2104 6.47292 13.0152 6.27766L8.85355 2.11605C8.65829 1.92079 8.3417 1.92079 8.14644 2.11605L3.98483 6.27766C3.78957 6.47292 3.78957 6.78951 3.98483 6.98477L4.51516 7.5151C4.71042 7.71036 5.027 7.71036 5.22227 7.5151L7.625 5.11237Z" fill="white"/>
</svg>
